0, 0, Header, 1, 5, 192
1, 0, Start_track
1, 0, Title_t, "                                "
1, 0, Tempo, 277777
1, 0, End_track
2, 0, Start_track
2, 0, Instrument_name_t, "                "
2, 0, Note_on_c, 0, 62, 47
2, 192, Note_on_c, 0, 62, 0
2, 192, Note_on_c, 0, 71, 47
2, 384, Note_on_c, 0, 71, 0
2, 384, Note_on_c, 0, 69, 47
2, 576, Note_on_c, 0, 69, 0
2, 576, Note_on_c, 0, 67, 47
2, 768, Note_on_c, 0, 67, 0
2, 768, Note_on_c, 0, 62, 47
2, 1344, Note_on_c, 0, 62, 0
2, 1344, Note_on_c, 0, 62, 47
2, 1440, Note_on_c, 0, 62, 0
2, 1440, Note_on_c, 0, 62, 47
2, 1536, Note_on_c, 0, 62, 0
2, 1536, Note_on_c, 0, 62, 47
2, 1728, Note_on_c, 0, 62, 0
2, 1728, Note_on_c, 0, 71, 47
2, 1920, Note_on_c, 0, 71, 0
2, 1920, Note_on_c, 0, 69, 47
2, 2112, Note_on_c, 0, 69, 0
2, 2112, Note_on_c, 0, 67, 47
2, 2304, Note_on_c, 0, 67, 0
2, 2304, Note_on_c, 0, 64, 47
2, 3072, Note_on_c, 0, 64, 0
2, 3072, Note_on_c, 0, 64, 47
2, 3264, Note_on_c, 0, 64, 0
2, 3264, Note_on_c, 0, 72, 47
2, 3456, Note_on_c, 0, 72, 0
2, 3456, Note_on_c, 0, 71, 47
2, 3648, Note_on_c, 0, 71, 0
2, 3648, Note_on_c, 0, 69, 47
2, 3840, Note_on_c, 0, 69, 0
2, 3840, Note_on_c, 0, 66, 47
2, 4608, Note_on_c, 0, 66, 0
2, 4608, Note_on_c, 0, 74, 47
2, 4800, Note_on_c, 0, 74, 0
2, 4800, Note_on_c, 0, 74, 47
2, 4992, Note_on_c, 0, 74, 0
2, 4992, Note_on_c, 0, 72, 47
2, 5184, Note_on_c, 0, 72, 0
2, 5184, Note_on_c, 0, 69, 47
2, 5376, Note_on_c, 0, 69, 0
2, 5376, Note_on_c, 0, 71, 47
2, 6144, Note_on_c, 0, 71, 0
2, 6144, Note_on_c, 0, 62, 47
2, 6336, Note_on_c, 0, 62, 0
2, 6336, Note_on_c, 0, 71, 47
2, 6528, Note_on_c, 0, 71, 0
2, 6528, Note_on_c, 0, 69, 47
2, 6720, Note_on_c, 0, 69, 0
2, 6720, Note_on_c, 0, 67, 47
2, 6912, Note_on_c, 0, 67, 0
2, 6912, Note_on_c, 0, 62, 47
2, 7680, Note_on_c, 0, 62, 0
2, 7680, Note_on_c, 0, 62, 47
2, 7872, Note_on_c, 0, 62, 0
2, 7872, Note_on_c, 0, 71, 47
2, 8064, Note_on_c, 0, 71, 0
2, 8064, Note_on_c, 0, 69, 47
2, 8256, Note_on_c, 0, 69, 0
2, 8256, Note_on_c, 0, 67, 47
2, 8448, Note_on_c, 0, 67, 0
2, 8448, Note_on_c, 0, 64, 47
2, 9024, Note_on_c, 0, 64, 0
2, 9024, Note_on_c, 0, 64, 47
2, 9216, Note_on_c, 0, 64, 0
2, 9216, Note_on_c, 0, 64, 47
2, 9408, Note_on_c, 0, 64, 0
2, 9408, Note_on_c, 0, 72, 47
2, 9600, Note_on_c, 0, 72, 0
2, 9600, Note_on_c, 0, 71, 47
2, 9792, Note_on_c, 0, 71, 0
2, 9792, Note_on_c, 0, 69, 47
2, 9984, Note_on_c, 0, 69, 0
2, 9984, Note_on_c, 0, 74, 47
2, 10176, Note_on_c, 0, 74, 0
2, 10176, Note_on_c, 0, 74, 47
2, 10368, Note_on_c, 0, 74, 0
2, 10368, Note_on_c, 0, 74, 47
2, 10560, Note_on_c, 0, 74, 0
2, 10560, Note_on_c, 0, 74, 47
2, 10752, Note_on_c, 0, 74, 0
2, 10752, Note_on_c, 0, 76, 47
2, 10944, Note_on_c, 0, 76, 0
2, 10944, Note_on_c, 0, 74, 47
2, 11136, Note_on_c, 0, 74, 0
2, 11136, Note_on_c, 0, 72, 47
2, 11328, Note_on_c, 0, 72, 0
2, 11328, Note_on_c, 0, 69, 47
2, 11520, Note_on_c, 0, 69, 0
2, 11520, Note_on_c, 0, 67, 47
2, 12096, Note_on_c, 0, 67, 0
2, 12288, Note_on_c, 0, 71, 47
2, 12480, Note_on_c, 0, 71, 0
2, 12480, Note_on_c, 0, 71, 47
2, 12672, Note_on_c, 0, 71, 0
2, 12672, Note_on_c, 0, 71, 47
2, 13056, Note_on_c, 0, 71, 0
2, 13056, Note_on_c, 0, 71, 47
2, 13248, Note_on_c, 0, 71, 0
2, 13248, Note_on_c, 0, 71, 47
2, 13440, Note_on_c, 0, 71, 0
2, 13440, Note_on_c, 0, 71, 47
2, 13824, Note_on_c, 0, 71, 0
2, 13824, Note_on_c, 0, 71, 47
2, 14016, Note_on_c, 0, 71, 0
2, 14016, Note_on_c, 0, 74, 47
2, 14208, Note_on_c, 0, 74, 0
2, 14208, Note_on_c, 0, 67, 47
2, 14496, Note_on_c, 0, 67, 0
2, 14496, Note_on_c, 0, 69, 47
2, 14592, Note_on_c, 0, 69, 0
2, 14592, Note_on_c, 0, 71, 47
2, 15360, Note_on_c, 0, 71, 0
2, 15360, Note_on_c, 0, 72, 47
2, 15552, Note_on_c, 0, 72, 0
2, 15552, Note_on_c, 0, 72, 47
2, 15744, Note_on_c, 0, 72, 0
2, 15744, Note_on_c, 0, 72, 47
2, 16032, Note_on_c, 0, 72, 0
2, 16032, Note_on_c, 0, 72, 47
2, 16128, Note_on_c, 0, 72, 0
2, 16128, Note_on_c, 0, 72, 47
2, 16320, Note_on_c, 0, 72, 0
2, 16320, Note_on_c, 0, 71, 47
2, 16512, Note_on_c, 0, 71, 0
2, 16512, Note_on_c, 0, 71, 47
2, 16704, Note_on_c, 0, 71, 0
2, 16704, Note_on_c, 0, 71, 47
2, 16800, Note_on_c, 0, 71, 0
2, 16800, Note_on_c, 0, 71, 47
2, 16896, Note_on_c, 0, 71, 0
2, 16896, Note_on_c, 0, 71, 47
2, 17088, Note_on_c, 0, 71, 0
2, 17088, Note_on_c, 0, 69, 47
2, 17280, Note_on_c, 0, 69, 0
2, 17280, Note_on_c, 0, 69, 47
2, 17472, Note_on_c, 0, 69, 0
2, 17472, Note_on_c, 0, 71, 47
2, 17664, Note_on_c, 0, 71, 0
2, 17664, Note_on_c, 0, 69, 47
2, 18048, Note_on_c, 0, 69, 0
2, 18048, Note_on_c, 0, 74, 47
2, 18432, Note_on_c, 0, 74, 0
2, 18432, Note_on_c, 0, 71, 47
2, 18624, Note_on_c, 0, 71, 0
2, 18624, Note_on_c, 0, 71, 47
2, 18816, Note_on_c, 0, 71, 0
2, 18816, Note_on_c, 0, 71, 47
2, 19200, Note_on_c, 0, 71, 0
2, 19200, Note_on_c, 0, 71, 47
2, 19392, Note_on_c, 0, 71, 0
2, 19392, Note_on_c, 0, 71, 47
2, 19584, Note_on_c, 0, 71, 0
2, 19584, Note_on_c, 0, 71, 47
2, 19968, Note_on_c, 0, 71, 0
2, 19968, Note_on_c, 0, 71, 47
2, 20160, Note_on_c, 0, 71, 0
2, 20160, Note_on_c, 0, 74, 47
2, 20352, Note_on_c, 0, 74, 0
2, 20352, Note_on_c, 0, 67, 47
2, 20640, Note_on_c, 0, 67, 0
2, 20640, Note_on_c, 0, 69, 47
2, 20736, Note_on_c, 0, 69, 0
2, 20736, Note_on_c, 0, 71, 47
2, 21504, Note_on_c, 0, 71, 0
2, 21504, Note_on_c, 0, 72, 47
2, 21696, Note_on_c, 0, 72, 0
2, 21696, Note_on_c, 0, 72, 47
2, 21888, Note_on_c, 0, 72, 0
2, 21888, Note_on_c, 0, 72, 47
2, 22176, Note_on_c, 0, 72, 0
2, 22176, Note_on_c, 0, 72, 47
2, 22272, Note_on_c, 0, 72, 0
2, 22272, Note_on_c, 0, 72, 47
2, 22464, Note_on_c, 0, 72, 0
2, 22464, Note_on_c, 0, 71, 47
2, 22656, Note_on_c, 0, 71, 0
2, 22656, Note_on_c, 0, 71, 47
2, 22848, Note_on_c, 0, 71, 0
2, 22848, Note_on_c, 0, 71, 47
2, 22944, Note_on_c, 0, 71, 0
2, 22944, Note_on_c, 0, 71, 47
2, 23040, Note_on_c, 0, 71, 0
2, 23040, Note_on_c, 0, 74, 47
2, 23232, Note_on_c, 0, 74, 0
2, 23232, Note_on_c, 0, 74, 47
2, 23424, Note_on_c, 0, 74, 0
2, 23424, Note_on_c, 0, 72, 47
2, 23616, Note_on_c, 0, 72, 0
2, 23616, Note_on_c, 0, 69, 47
2, 23808, Note_on_c, 0, 69, 0
2, 23808, Note_on_c, 0, 67, 47
2, 24000, Note_on_c, 0, 67, 0
2, 24000, Note_on_c, 0, 74, 47
2, 24192, Note_on_c, 0, 74, 0
2, 24192, Note_on_c, 0, 79, 47
2, 24384, Note_on_c, 0, 79, 0
2, 24576, Note_on_c, 0, 62, 47
2, 24768, Note_on_c, 0, 62, 0
2, 24768, Note_on_c, 0, 71, 47
2, 24960, Note_on_c, 0, 71, 0
2, 24960, Note_on_c, 0, 69, 47
2, 25152, Note_on_c, 0, 69, 0
2, 25152, Note_on_c, 0, 67, 47
2, 25344, Note_on_c, 0, 67, 0
2, 25344, Note_on_c, 0, 62, 47
2, 25920, Note_on_c, 0, 62, 0
2, 25920, Note_on_c, 0, 62, 47
2, 26016, Note_on_c, 0, 62, 0
2, 26016, Note_on_c, 0, 62, 47
2, 26112, Note_on_c, 0, 62, 0
2, 26112, Note_on_c, 0, 62, 47
2, 26304, Note_on_c, 0, 62, 0
2, 26304, Note_on_c, 0, 71, 47
2, 26496, Note_on_c, 0, 71, 0
2, 26496, Note_on_c, 0, 69, 47
2, 26688, Note_on_c, 0, 69, 0
2, 26688, Note_on_c, 0, 67, 47
2, 26880, Note_on_c, 0, 67, 0
2, 26880, Note_on_c, 0, 64, 47
2, 27648, Note_on_c, 0, 64, 0
2, 27648, Note_on_c, 0, 64, 47
2, 27840, Note_on_c, 0, 64, 0
2, 27840, Note_on_c, 0, 72, 47
2, 28032, Note_on_c, 0, 72, 0
2, 28032, Note_on_c, 0, 71, 47
2, 28224, Note_on_c, 0, 71, 0
2, 28224, Note_on_c, 0, 69, 47
2, 28416, Note_on_c, 0, 69, 0
2, 28416, Note_on_c, 0, 66, 47
2, 29184, Note_on_c, 0, 66, 0
2, 29184, Note_on_c, 0, 74, 47
2, 29376, Note_on_c, 0, 74, 0
2, 29376, Note_on_c, 0, 74, 47
2, 29568, Note_on_c, 0, 74, 0
2, 29568, Note_on_c, 0, 72, 47
2, 29760, Note_on_c, 0, 72, 0
2, 29760, Note_on_c, 0, 69, 47
2, 29952, Note_on_c, 0, 69, 0
2, 29952, Note_on_c, 0, 71, 47
2, 30720, Note_on_c, 0, 71, 0
2, 30720, Note_on_c, 0, 62, 47
2, 30912, Note_on_c, 0, 62, 0
2, 30912, Note_on_c, 0, 71, 47
2, 31104, Note_on_c, 0, 71, 0
2, 31104, Note_on_c, 0, 69, 47
2, 31296, Note_on_c, 0, 69, 0
2, 31296, Note_on_c, 0, 67, 47
2, 31488, Note_on_c, 0, 67, 0
2, 31488, Note_on_c, 0, 62, 47
2, 32256, Note_on_c, 0, 62, 0
2, 32256, Note_on_c, 0, 62, 47
2, 32448, Note_on_c, 0, 62, 0
2, 32448, Note_on_c, 0, 71, 47
2, 32640, Note_on_c, 0, 71, 0
2, 32640, Note_on_c, 0, 69, 47
2, 32832, Note_on_c, 0, 69, 0
2, 32832, Note_on_c, 0, 67, 47
2, 33024, Note_on_c, 0, 67, 0
2, 33024, Note_on_c, 0, 64, 47
2, 33600, Note_on_c, 0, 64, 0
2, 33600, Note_on_c, 0, 64, 47
2, 33792, Note_on_c, 0, 64, 0
2, 33792, Note_on_c, 0, 64, 47
2, 33984, Note_on_c, 0, 64, 0
2, 33984, Note_on_c, 0, 72, 47
2, 34176, Note_on_c, 0, 72, 0
2, 34176, Note_on_c, 0, 71, 47
2, 34368, Note_on_c, 0, 71, 0
2, 34368, Note_on_c, 0, 69, 47
2, 34560, Note_on_c, 0, 69, 0
2, 34560, Note_on_c, 0, 74, 47
2, 34752, Note_on_c, 0, 74, 0
2, 34752, Note_on_c, 0, 74, 47
2, 34944, Note_on_c, 0, 74, 0
2, 34944, Note_on_c, 0, 74, 47
2, 35136, Note_on_c, 0, 74, 0
2, 35136, Note_on_c, 0, 74, 47
2, 35328, Note_on_c, 0, 74, 0
2, 35328, Note_on_c, 0, 76, 47
2, 35520, Note_on_c, 0, 76, 0
2, 35520, Note_on_c, 0, 74, 47
2, 35712, Note_on_c, 0, 74, 0
2, 35712, Note_on_c, 0, 72, 47
2, 35904, Note_on_c, 0, 72, 0
2, 35904, Note_on_c, 0, 69, 47
2, 36096, Note_on_c, 0, 69, 0
2, 36096, Note_on_c, 0, 67, 47
2, 36672, Note_on_c, 0, 67, 0
2, 36864, Note_on_c, 0, 71, 47
2, 37056, Note_on_c, 0, 71, 0
2, 37056, Note_on_c, 0, 71, 47
2, 37248, Note_on_c, 0, 71, 0
2, 37248, Note_on_c, 0, 71, 47
2, 37632, Note_on_c, 0, 71, 0
2, 37632, Note_on_c, 0, 71, 47
2, 37824, Note_on_c, 0, 71, 0
2, 37824, Note_on_c, 0, 71, 47
2, 38016, Note_on_c, 0, 71, 0
2, 38016, Note_on_c, 0, 71, 47
2, 38400, Note_on_c, 0, 71, 0
2, 38400, Note_on_c, 0, 71, 47
2, 38592, Note_on_c, 0, 71, 0
2, 38592, Note_on_c, 0, 74, 47
2, 38784, Note_on_c, 0, 74, 0
2, 38784, Note_on_c, 0, 67, 47
2, 39072, Note_on_c, 0, 67, 0
2, 39072, Note_on_c, 0, 69, 47
2, 39168, Note_on_c, 0, 69, 0
2, 39168, Note_on_c, 0, 71, 47
2, 39936, Note_on_c, 0, 71, 0
2, 39936, Note_on_c, 0, 72, 47
2, 40128, Note_on_c, 0, 72, 0
2, 40128, Note_on_c, 0, 72, 47
2, 40320, Note_on_c, 0, 72, 0
2, 40320, Note_on_c, 0, 72, 47
2, 40608, Note_on_c, 0, 72, 0
2, 40608, Note_on_c, 0, 72, 47
2, 40704, Note_on_c, 0, 72, 0
2, 40704, Note_on_c, 0, 72, 47
2, 40896, Note_on_c, 0, 72, 0
2, 40896, Note_on_c, 0, 71, 47
2, 41088, Note_on_c, 0, 71, 0
2, 41088, Note_on_c, 0, 71, 47
2, 41280, Note_on_c, 0, 71, 0
2, 41280, Note_on_c, 0, 71, 47
2, 41376, Note_on_c, 0, 71, 0
2, 41376, Note_on_c, 0, 71, 47
2, 41472, Note_on_c, 0, 71, 0
2, 41472, Note_on_c, 0, 71, 47
2, 41664, Note_on_c, 0, 71, 0
2, 41664, Note_on_c, 0, 69, 47
2, 41856, Note_on_c, 0, 69, 0
2, 41856, Note_on_c, 0, 69, 47
2, 42048, Note_on_c, 0, 69, 0
2, 42048, Note_on_c, 0, 71, 47
2, 42240, Note_on_c, 0, 71, 0
2, 42240, Note_on_c, 0, 69, 47
2, 42624, Note_on_c, 0, 69, 0
2, 42624, Note_on_c, 0, 74, 47
2, 43008, Note_on_c, 0, 74, 0
2, 43008, Note_on_c, 0, 71, 47
2, 43200, Note_on_c, 0, 71, 0
2, 43200, Note_on_c, 0, 71, 47
2, 43392, Note_on_c, 0, 71, 0
2, 43392, Note_on_c, 0, 71, 47
2, 43776, Note_on_c, 0, 71, 0
2, 43776, Note_on_c, 0, 71, 47
2, 43968, Note_on_c, 0, 71, 0
2, 43968, Note_on_c, 0, 71, 47
2, 44160, Note_on_c, 0, 71, 0
2, 44160, Note_on_c, 0, 71, 47
2, 44544, Note_on_c, 0, 71, 0
2, 44544, Note_on_c, 0, 71, 47
2, 44736, Note_on_c, 0, 71, 0
2, 44736, Note_on_c, 0, 74, 47
2, 44928, Note_on_c, 0, 74, 0
2, 44928, Note_on_c, 0, 67, 47
2, 45216, Note_on_c, 0, 67, 0
2, 45216, Note_on_c, 0, 69, 47
2, 45312, Note_on_c, 0, 69, 0
2, 45312, Note_on_c, 0, 71, 47
2, 46080, Note_on_c, 0, 71, 0
2, 46080, Note_on_c, 0, 72, 47
2, 46272, Note_on_c, 0, 72, 0
2, 46272, Note_on_c, 0, 72, 47
2, 46464, Note_on_c, 0, 72, 0
2, 46464, Note_on_c, 0, 72, 47
2, 46752, Note_on_c, 0, 72, 0
2, 46752, Note_on_c, 0, 72, 47
2, 46848, Note_on_c, 0, 72, 0
2, 46848, Note_on_c, 0, 72, 47
2, 47040, Note_on_c, 0, 72, 0
2, 47040, Note_on_c, 0, 71, 47
2, 47232, Note_on_c, 0, 71, 0
2, 47232, Note_on_c, 0, 71, 47
2, 47424, Note_on_c, 0, 71, 0
2, 47424, Note_on_c, 0, 71, 47
2, 47520, Note_on_c, 0, 71, 0
2, 47520, Note_on_c, 0, 71, 47
2, 47616, Note_on_c, 0, 71, 0
2, 47616, Note_on_c, 0, 74, 47
2, 47808, Note_on_c, 0, 74, 0
2, 47808, Note_on_c, 0, 74, 47
2, 48000, Note_on_c, 0, 74, 0
2, 48000, Note_on_c, 0, 72, 47
2, 48192, Note_on_c, 0, 72, 0
2, 48192, Note_on_c, 0, 69, 47
2, 48384, Note_on_c, 0, 69, 0
2, 48384, Note_on_c, 0, 67, 47
2, 48576, Note_on_c, 0, 67, 0
2, 48576, Note_on_c, 0, 74, 47
2, 48768, Note_on_c, 0, 74, 0
2, 48768, Note_on_c, 0, 79, 47
2, 48960, Note_on_c, 0, 79, 0
2, 48960, End_track
3, 0, Start_track
3, 0, Instrument_name_t, "                "
3, 12288, Note_on_c, 1, 62, 39
3, 12480, Note_on_c, 1, 62, 0
3, 12672, Note_on_c, 1, 62, 39
3, 12864, Note_on_c, 1, 62, 0
3, 13056, Note_on_c, 1, 62, 39
3, 13248, Note_on_c, 1, 62, 0
3, 13440, Note_on_c, 1, 62, 39
3, 13632, Note_on_c, 1, 62, 0
3, 13824, Note_on_c, 1, 62, 39
3, 14016, Note_on_c, 1, 62, 0
3, 14208, Note_on_c, 1, 62, 39
3, 14400, Note_on_c, 1, 62, 0
3, 14592, Note_on_c, 1, 62, 39
3, 14784, Note_on_c, 1, 62, 0
3, 14976, Note_on_c, 1, 59, 39
3, 15168, Note_on_c, 1, 59, 0
3, 15360, Note_on_c, 1, 60, 39
3, 15552, Note_on_c, 1, 60, 0
3, 15744, Note_on_c, 1, 60, 39
3, 15936, Note_on_c, 1, 60, 0
3, 16128, Note_on_c, 1, 59, 39
3, 16320, Note_on_c, 1, 59, 0
3, 16512, Note_on_c, 1, 59, 39
3, 16704, Note_on_c, 1, 59, 0
3, 16896, Note_on_c, 1, 57, 39
3, 17664, Note_on_c, 1, 57, 0
3, 17664, Note_on_c, 1, 57, 39
3, 18048, Note_on_c, 1, 57, 0
3, 18048, Note_on_c, 1, 60, 39
3, 18432, Note_on_c, 1, 60, 0
3, 18432, Note_on_c, 1, 62, 39
3, 18624, Note_on_c, 1, 62, 0
3, 18816, Note_on_c, 1, 62, 39
3, 19008, Note_on_c, 1, 62, 0
3, 19200, Note_on_c, 1, 62, 39
3, 19392, Note_on_c, 1, 62, 0
3, 19584, Note_on_c, 1, 62, 39
3, 19776, Note_on_c, 1, 62, 0
3, 19968, Note_on_c, 1, 62, 39
3, 20160, Note_on_c, 1, 62, 0
3, 20352, Note_on_c, 1, 62, 39
3, 20544, Note_on_c, 1, 62, 0
3, 20736, Note_on_c, 1, 62, 39
3, 20928, Note_on_c, 1, 62, 0
3, 21120, Note_on_c, 1, 59, 39
3, 21312, Note_on_c, 1, 59, 0
3, 21504, Note_on_c, 1, 60, 39
3, 21696, Note_on_c, 1, 60, 0
3, 21888, Note_on_c, 1, 60, 39
3, 22080, Note_on_c, 1, 60, 0
3, 22272, Note_on_c, 1, 59, 39
3, 22464, Note_on_c, 1, 59, 0
3, 22656, Note_on_c, 1, 59, 39
3, 22848, Note_on_c, 1, 59, 0
3, 23040, Note_on_c, 1, 57, 39
3, 23424, Note_on_c, 1, 57, 0
3, 23424, Note_on_c, 1, 60, 39
3, 23808, Note_on_c, 1, 60, 0
3, 23808, Note_on_c, 1, 59, 39
3, 24000, Note_on_c, 1, 59, 0
3, 36864, Note_on_c, 1, 62, 39
3, 37056, Note_on_c, 1, 62, 0
3, 37248, Note_on_c, 1, 62, 39
3, 37440, Note_on_c, 1, 62, 0
3, 37632, Note_on_c, 1, 62, 39
3, 37824, Note_on_c, 1, 62, 0
3, 38016, Note_on_c, 1, 62, 39
3, 38208, Note_on_c, 1, 62, 0
3, 38400, Note_on_c, 1, 62, 39
3, 38592, Note_on_c, 1, 62, 0
3, 38784, Note_on_c, 1, 62, 39
3, 38976, Note_on_c, 1, 62, 0
3, 39168, Note_on_c, 1, 62, 39
3, 39360, Note_on_c, 1, 62, 0
3, 39552, Note_on_c, 1, 59, 39
3, 39744, Note_on_c, 1, 59, 0
3, 39936, Note_on_c, 1, 60, 39
3, 40128, Note_on_c, 1, 60, 0
3, 40320, Note_on_c, 1, 60, 39
3, 40512, Note_on_c, 1, 60, 0
3, 40704, Note_on_c, 1, 59, 39
3, 40896, Note_on_c, 1, 59, 0
3, 41088, Note_on_c, 1, 59, 39
3, 41280, Note_on_c, 1, 59, 0
3, 41472, Note_on_c, 1, 57, 39
3, 42240, Note_on_c, 1, 57, 0
3, 42240, Note_on_c, 1, 57, 39
3, 42624, Note_on_c, 1, 57, 0
3, 42624, Note_on_c, 1, 60, 39
3, 43008, Note_on_c, 1, 60, 0
3, 43008, Note_on_c, 1, 62, 39
3, 43200, Note_on_c, 1, 62, 0
3, 43392, Note_on_c, 1, 62, 39
3, 43584, Note_on_c, 1, 62, 0
3, 43776, Note_on_c, 1, 62, 39
3, 43968, Note_on_c, 1, 62, 0
3, 44160, Note_on_c, 1, 62, 39
3, 44352, Note_on_c, 1, 62, 0
3, 44544, Note_on_c, 1, 62, 39
3, 44736, Note_on_c, 1, 62, 0
3, 44928, Note_on_c, 1, 62, 39
3, 45120, Note_on_c, 1, 62, 0
3, 45312, Note_on_c, 1, 62, 39
3, 45504, Note_on_c, 1, 62, 0
3, 45696, Note_on_c, 1, 59, 39
3, 45888, Note_on_c, 1, 59, 0
3, 46080, Note_on_c, 1, 60, 39
3, 46272, Note_on_c, 1, 60, 0
3, 46464, Note_on_c, 1, 60, 39
3, 46656, Note_on_c, 1, 60, 0
3, 46848, Note_on_c, 1, 59, 39
3, 47040, Note_on_c, 1, 59, 0
3, 47232, Note_on_c, 1, 59, 39
3, 47424, Note_on_c, 1, 59, 0
3, 47616, Note_on_c, 1, 57, 39
3, 48000, Note_on_c, 1, 57, 0
3, 48000, Note_on_c, 1, 60, 39
3, 48384, Note_on_c, 1, 60, 0
3, 48384, Note_on_c, 1, 59, 39
3, 48576, Note_on_c, 1, 59, 0
3, 48576, End_track
4, 0, Start_track
4, 0, Instrument_name_t, "                "
4, 12288, Note_on_c, 2, 59, 31
4, 12480, Note_on_c, 2, 59, 0
4, 12672, Note_on_c, 2, 59, 31
4, 12864, Note_on_c, 2, 59, 0
4, 13056, Note_on_c, 2, 59, 31
4, 13248, Note_on_c, 2, 59, 0
4, 13440, Note_on_c, 2, 59, 31
4, 13632, Note_on_c, 2, 59, 0
4, 13824, Note_on_c, 2, 59, 31
4, 14016, Note_on_c, 2, 59, 0
4, 14208, Note_on_c, 2, 59, 31
4, 14400, Note_on_c, 2, 59, 0
4, 14592, Note_on_c, 2, 59, 31
4, 14784, Note_on_c, 2, 59, 0
4, 14976, Note_on_c, 2, 55, 31
4, 15168, Note_on_c, 2, 55, 0
4, 15360, Note_on_c, 2, 55, 31
4, 15552, Note_on_c, 2, 55, 0
4, 15744, Note_on_c, 2, 55, 31
4, 15936, Note_on_c, 2, 55, 0
4, 16128, Note_on_c, 2, 55, 31
4, 16320, Note_on_c, 2, 55, 0
4, 16512, Note_on_c, 2, 55, 31
4, 16704, Note_on_c, 2, 55, 0
4, 16896, Note_on_c, 2, 55, 31
4, 17664, Note_on_c, 2, 55, 0
4, 17664, Note_on_c, 2, 54, 31
4, 18048, Note_on_c, 2, 54, 0
4, 18048, Note_on_c, 2, 54, 31
4, 18432, Note_on_c, 2, 54, 0
4, 18432, Note_on_c, 2, 59, 31
4, 18624, Note_on_c, 2, 59, 0
4, 18816, Note_on_c, 2, 59, 31
4, 19008, Note_on_c, 2, 59, 0
4, 19200, Note_on_c, 2, 59, 31
4, 19392, Note_on_c, 2, 59, 0
4, 19584, Note_on_c, 2, 59, 31
4, 19776, Note_on_c, 2, 59, 0
4, 19968, Note_on_c, 2, 59, 31
4, 20160, Note_on_c, 2, 59, 0
4, 20352, Note_on_c, 2, 59, 31
4, 20544, Note_on_c, 2, 59, 0
4, 20736, Note_on_c, 2, 59, 31
4, 20928, Note_on_c, 2, 59, 0
4, 21120, Note_on_c, 2, 55, 31
4, 21312, Note_on_c, 2, 55, 0
4, 21504, Note_on_c, 2, 55, 31
4, 21696, Note_on_c, 2, 55, 0
4, 21888, Note_on_c, 2, 55, 31
4, 22080, Note_on_c, 2, 55, 0
4, 22272, Note_on_c, 2, 55, 31
4, 22464, Note_on_c, 2, 55, 0
4, 22656, Note_on_c, 2, 55, 31
4, 22848, Note_on_c, 2, 55, 0
4, 23040, Note_on_c, 2, 54, 31
4, 23424, Note_on_c, 2, 54, 0
4, 23424, Note_on_c, 2, 54, 31
4, 23808, Note_on_c, 2, 54, 0
4, 23808, Note_on_c, 2, 54, 31
4, 24000, Note_on_c, 2, 54, 0
4, 24576, Note_on_c, 2, 31, 47
4, 24624, Note_on_c, 2, 31, 0
4, 24768, Note_on_c, 2, 38, 47
4, 24816, Note_on_c, 2, 38, 0
4, 24960, Note_on_c, 2, 40, 47
4, 25008, Note_on_c, 2, 40, 0
4, 25152, Note_on_c, 2, 38, 47
4, 25200, Note_on_c, 2, 38, 0
4, 25344, Note_on_c, 2, 31, 47
4, 25392, Note_on_c, 2, 31, 0
4, 25536, Note_on_c, 2, 38, 47
4, 25584, Note_on_c, 2, 38, 0
4, 25728, Note_on_c, 2, 35, 47
4, 25776, Note_on_c, 2, 35, 0
4, 25920, Note_on_c, 2, 38, 47
4, 25968, Note_on_c, 2, 38, 0
4, 26112, Note_on_c, 2, 31, 55
4, 26160, Note_on_c, 2, 31, 0
4, 26304, Note_on_c, 2, 38, 55
4, 26352, Note_on_c, 2, 38, 0
4, 26496, Note_on_c, 2, 40, 55
4, 26544, Note_on_c, 2, 40, 0
4, 26688, Note_on_c, 2, 38, 55
4, 26736, Note_on_c, 2, 38, 0
4, 26880, Note_on_c, 2, 36, 55
4, 26928, Note_on_c, 2, 36, 0
4, 27072, Note_on_c, 2, 43, 55
4, 27120, Note_on_c, 2, 43, 0
4, 27264, Note_on_c, 2, 40, 55
4, 27312, Note_on_c, 2, 40, 0
4, 27456, Note_on_c, 2, 43, 55
4, 27504, Note_on_c, 2, 43, 0
4, 27648, Note_on_c, 2, 33, 55
4, 27696, Note_on_c, 2, 33, 0
4, 27840, Note_on_c, 2, 40, 55
4, 27888, Note_on_c, 2, 40, 0
4, 28032, Note_on_c, 2, 38, 55
4, 28080, Note_on_c, 2, 38, 0
4, 28224, Note_on_c, 2, 36, 55
4, 28272, Note_on_c, 2, 36, 0
4, 28416, Note_on_c, 2, 38, 55
4, 28464, Note_on_c, 2, 38, 0
4, 28608, Note_on_c, 2, 33, 55
4, 28656, Note_on_c, 2, 33, 0
4, 28800, Note_on_c, 2, 26, 55
4, 28848, Note_on_c, 2, 26, 0
4, 28992, Note_on_c, 2, 33, 55
4, 29040, Note_on_c, 2, 33, 0
4, 29184, Note_on_c, 2, 38, 55
4, 29232, Note_on_c, 2, 38, 0
4, 29376, Note_on_c, 2, 33, 55
4, 29424, Note_on_c, 2, 33, 0
4, 29568, Note_on_c, 2, 26, 55
4, 29616, Note_on_c, 2, 26, 0
4, 29760, Note_on_c, 2, 38, 55
4, 29808, Note_on_c, 2, 38, 0
4, 29952, Note_on_c, 2, 31, 55
4, 30000, Note_on_c, 2, 31, 0
4, 30144, Note_on_c, 2, 38, 55
4, 30192, Note_on_c, 2, 38, 0
4, 30336, Note_on_c, 2, 35, 55
4, 30384, Note_on_c, 2, 35, 0
4, 30528, Note_on_c, 2, 38, 55
4, 30576, Note_on_c, 2, 38, 0
4, 30720, Note_on_c, 2, 31, 55
4, 30768, Note_on_c, 2, 31, 0
4, 30912, Note_on_c, 2, 38, 55
4, 30960, Note_on_c, 2, 38, 0
4, 31104, Note_on_c, 2, 40, 55
4, 31152, Note_on_c, 2, 40, 0
4, 31296, Note_on_c, 2, 38, 55
4, 31344, Note_on_c, 2, 38, 0
4, 31488, Note_on_c, 2, 31, 55
4, 31536, Note_on_c, 2, 31, 0
4, 31680, Note_on_c, 2, 38, 55
4, 31728, Note_on_c, 2, 38, 0
4, 31872, Note_on_c, 2, 35, 55
4, 31920, Note_on_c, 2, 35, 0
4, 32064, Note_on_c, 2, 38, 55
4, 32112, Note_on_c, 2, 38, 0
4, 32256, Note_on_c, 2, 31, 55
4, 32304, Note_on_c, 2, 31, 0
4, 32448, Note_on_c, 2, 38, 55
4, 32496, Note_on_c, 2, 38, 0
4, 32640, Note_on_c, 2, 40, 55
4, 32688, Note_on_c, 2, 40, 0
4, 32832, Note_on_c, 2, 38, 55
4, 32880, Note_on_c, 2, 38, 0
4, 33024, Note_on_c, 2, 36, 55
4, 33072, Note_on_c, 2, 36, 0
4, 33216, Note_on_c, 2, 43, 55
4, 33264, Note_on_c, 2, 43, 0
4, 33408, Note_on_c, 2, 40, 55
4, 33456, Note_on_c, 2, 40, 0
4, 33600, Note_on_c, 2, 43, 55
4, 33648, Note_on_c, 2, 43, 0
4, 33792, Note_on_c, 2, 33, 55
4, 33840, Note_on_c, 2, 33, 0
4, 33984, Note_on_c, 2, 40, 55
4, 34032, Note_on_c, 2, 40, 0
4, 34176, Note_on_c, 2, 38, 55
4, 34224, Note_on_c, 2, 38, 0
4, 34368, Note_on_c, 2, 36, 55
4, 34416, Note_on_c, 2, 36, 0
4, 34560, Note_on_c, 2, 38, 55
4, 34608, Note_on_c, 2, 38, 0
4, 34752, Note_on_c, 2, 38, 55
4, 34800, Note_on_c, 2, 38, 0
4, 34944, Note_on_c, 2, 38, 55
4, 34992, Note_on_c, 2, 38, 0
4, 35136, Note_on_c, 2, 38, 55
4, 35184, Note_on_c, 2, 38, 0
4, 35328, Note_on_c, 2, 36, 55
4, 35376, Note_on_c, 2, 36, 0
4, 35520, Note_on_c, 2, 38, 55
4, 35568, Note_on_c, 2, 38, 0
4, 35712, Note_on_c, 2, 40, 55
4, 35760, Note_on_c, 2, 40, 0
4, 35904, Note_on_c, 2, 42, 55
4, 35952, Note_on_c, 2, 42, 0
4, 36096, Note_on_c, 2, 43, 55
4, 36144, Note_on_c, 2, 43, 0
4, 36288, Note_on_c, 2, 38, 55
4, 36336, Note_on_c, 2, 38, 0
4, 36480, Note_on_c, 2, 31, 55
4, 36528, Note_on_c, 2, 31, 0
4, 36864, Note_on_c, 2, 59, 31
4, 37056, Note_on_c, 2, 59, 0
4, 37248, Note_on_c, 2, 59, 31
4, 37440, Note_on_c, 2, 59, 0
4, 37632, Note_on_c, 2, 59, 31
4, 37824, Note_on_c, 2, 59, 0
4, 38016, Note_on_c, 2, 59, 31
4, 38208, Note_on_c, 2, 59, 0
4, 38400, Note_on_c, 2, 59, 31
4, 38592, Note_on_c, 2, 59, 0
4, 38784, Note_on_c, 2, 59, 31
4, 38976, Note_on_c, 2, 59, 0
4, 39168, Note_on_c, 2, 59, 31
4, 39360, Note_on_c, 2, 59, 0
4, 39552, Note_on_c, 2, 55, 31
4, 39744, Note_on_c, 2, 55, 0
4, 39936, Note_on_c, 2, 55, 31
4, 40128, Note_on_c, 2, 55, 0
4, 40320, Note_on_c, 2, 55, 31
4, 40512, Note_on_c, 2, 55, 0
4, 40704, Note_on_c, 2, 55, 31
4, 40896, Note_on_c, 2, 55, 0
4, 41088, Note_on_c, 2, 55, 31
4, 41280, Note_on_c, 2, 55, 0
4, 41472, Note_on_c, 2, 55, 31
4, 42240, Note_on_c, 2, 55, 0
4, 42240, Note_on_c, 2, 54, 31
4, 42624, Note_on_c, 2, 54, 0
4, 42624, Note_on_c, 2, 54, 31
4, 43008, Note_on_c, 2, 54, 0
4, 43008, Note_on_c, 2, 59, 31
4, 43200, Note_on_c, 2, 59, 0
4, 43392, Note_on_c, 2, 59, 31
4, 43584, Note_on_c, 2, 59, 0
4, 43776, Note_on_c, 2, 59, 31
4, 43968, Note_on_c, 2, 59, 0
4, 44160, Note_on_c, 2, 59, 31
4, 44352, Note_on_c, 2, 59, 0
4, 44544, Note_on_c, 2, 59, 31
4, 44736, Note_on_c, 2, 59, 0
4, 44928, Note_on_c, 2, 59, 31
4, 45120, Note_on_c, 2, 59, 0
4, 45312, Note_on_c, 2, 59, 31
4, 45504, Note_on_c, 2, 59, 0
4, 45696, Note_on_c, 2, 55, 31
4, 45888, Note_on_c, 2, 55, 0
4, 46080, Note_on_c, 2, 55, 31
4, 46272, Note_on_c, 2, 55, 0
4, 46464, Note_on_c, 2, 55, 31
4, 46656, Note_on_c, 2, 55, 0
4, 46848, Note_on_c, 2, 55, 31
4, 47040, Note_on_c, 2, 55, 0
4, 47232, Note_on_c, 2, 55, 31
4, 47424, Note_on_c, 2, 55, 0
4, 47616, Note_on_c, 2, 54, 31
4, 48000, Note_on_c, 2, 54, 0
4, 48000, Note_on_c, 2, 54, 31
4, 48384, Note_on_c, 2, 54, 0
4, 48384, Note_on_c, 2, 54, 31
4, 48576, Note_on_c, 2, 54, 0
4, 48576, End_track
5, 0, Start_track
5, 0, Instrument_name_t, "                "
5, 0, Note_on_c, 3, 43, 39
5, 192, Note_on_c, 3, 43, 0
5, 192, Note_on_c, 3, 50, 39
5, 384, Note_on_c, 3, 50, 0
5, 384, Note_on_c, 3, 52, 39
5, 576, Note_on_c, 3, 52, 0
5, 576, Note_on_c, 3, 50, 39
5, 768, Note_on_c, 3, 50, 0
5, 768, Note_on_c, 3, 43, 39
5, 960, Note_on_c, 3, 43, 0
5, 960, Note_on_c, 3, 50, 39
5, 1152, Note_on_c, 3, 50, 0
5, 1152, Note_on_c, 3, 47, 39
5, 1344, Note_on_c, 3, 47, 0
5, 1344, Note_on_c, 3, 50, 39
5, 1536, Note_on_c, 3, 50, 0
5, 1536, Note_on_c, 3, 43, 39
5, 1728, Note_on_c, 3, 43, 0
5, 1728, Note_on_c, 3, 50, 39
5, 1920, Note_on_c, 3, 50, 0
5, 1920, Note_on_c, 3, 52, 39
5, 2112, Note_on_c, 3, 52, 0
5, 2112, Note_on_c, 3, 50, 39
5, 2304, Note_on_c, 3, 50, 0
5, 2304, Note_on_c, 3, 48, 39
5, 2496, Note_on_c, 3, 48, 0
5, 2496, Note_on_c, 3, 55, 39
5, 2688, Note_on_c, 3, 55, 0
5, 2688, Note_on_c, 3, 52, 39
5, 2880, Note_on_c, 3, 52, 0
5, 2880, Note_on_c, 3, 55, 39
5, 3072, Note_on_c, 3, 55, 0
5, 3072, Note_on_c, 3, 45, 39
5, 3264, Note_on_c, 3, 45, 0
5, 3264, Note_on_c, 3, 52, 39
5, 3456, Note_on_c, 3, 52, 0
5, 3456, Note_on_c, 3, 50, 39
5, 3648, Note_on_c, 3, 50, 0
5, 3648, Note_on_c, 3, 48, 39
5, 3840, Note_on_c, 3, 48, 0
5, 3840, Note_on_c, 3, 50, 39
5, 4032, Note_on_c, 3, 50, 0
5, 4032, Note_on_c, 3, 45, 39
5, 4224, Note_on_c, 3, 45, 0
5, 4224, Note_on_c, 3, 38, 39
5, 4416, Note_on_c, 3, 38, 0
5, 4416, Note_on_c, 3, 45, 39
5, 4608, Note_on_c, 3, 45, 0
5, 4608, Note_on_c, 3, 50, 39
5, 4800, Note_on_c, 3, 50, 0
5, 4800, Note_on_c, 3, 45, 39
5, 4992, Note_on_c, 3, 45, 0
5, 4992, Note_on_c, 3, 38, 39
5, 5184, Note_on_c, 3, 38, 0
5, 5184, Note_on_c, 3, 50, 39
5, 5376, Note_on_c, 3, 50, 0
5, 5376, Note_on_c, 3, 43, 39
5, 5568, Note_on_c, 3, 43, 0
5, 5568, Note_on_c, 3, 50, 39
5, 5760, Note_on_c, 3, 50, 0
5, 5760, Note_on_c, 3, 47, 39
5, 5952, Note_on_c, 3, 47, 0
5, 5952, Note_on_c, 3, 50, 39
5, 6144, Note_on_c, 3, 50, 0
5, 6144, Note_on_c, 3, 43, 39
5, 6336, Note_on_c, 3, 43, 0
5, 6336, Note_on_c, 3, 50, 39
5, 6528, Note_on_c, 3, 50, 0
5, 6528, Note_on_c, 3, 52, 39
5, 6720, Note_on_c, 3, 52, 0
5, 6720, Note_on_c, 3, 50, 39
5, 6912, Note_on_c, 3, 50, 0
5, 6912, Note_on_c, 3, 43, 39
5, 7104, Note_on_c, 3, 43, 0
5, 7104, Note_on_c, 3, 50, 39
5, 7296, Note_on_c, 3, 50, 0
5, 7296, Note_on_c, 3, 47, 39
5, 7488, Note_on_c, 3, 47, 0
5, 7488, Note_on_c, 3, 50, 39
5, 7680, Note_on_c, 3, 50, 0
5, 7680, Note_on_c, 3, 43, 39
5, 7872, Note_on_c, 3, 43, 0
5, 7872, Note_on_c, 3, 50, 39
5, 8064, Note_on_c, 3, 50, 0
5, 8064, Note_on_c, 3, 52, 39
5, 8256, Note_on_c, 3, 52, 0
5, 8256, Note_on_c, 3, 50, 39
5, 8448, Note_on_c, 3, 50, 0
5, 8448, Note_on_c, 3, 48, 39
5, 8640, Note_on_c, 3, 48, 0
5, 8640, Note_on_c, 3, 55, 39
5, 8832, Note_on_c, 3, 55, 0
5, 8832, Note_on_c, 3, 52, 39
5, 9024, Note_on_c, 3, 52, 0
5, 9024, Note_on_c, 3, 55, 39
5, 9216, Note_on_c, 3, 55, 0
5, 9216, Note_on_c, 3, 45, 39
5, 9408, Note_on_c, 3, 45, 0
5, 9408, Note_on_c, 3, 52, 39
5, 9600, Note_on_c, 3, 52, 0
5, 9600, Note_on_c, 3, 50, 39
5, 9792, Note_on_c, 3, 50, 0
5, 9792, Note_on_c, 3, 48, 39
5, 9984, Note_on_c, 3, 48, 0
5, 9984, Note_on_c, 3, 50, 39
5, 10176, Note_on_c, 3, 50, 0
5, 10176, Note_on_c, 3, 50, 39
5, 10368, Note_on_c, 3, 50, 0
5, 10368, Note_on_c, 3, 50, 39
5, 10560, Note_on_c, 3, 50, 0
5, 10560, Note_on_c, 3, 50, 39
5, 10752, Note_on_c, 3, 50, 0
5, 10752, Note_on_c, 3, 48, 39
5, 10944, Note_on_c, 3, 48, 0
5, 10944, Note_on_c, 3, 50, 39
5, 11136, Note_on_c, 3, 50, 0
5, 11136, Note_on_c, 3, 52, 39
5, 11328, Note_on_c, 3, 52, 0
5, 11328, Note_on_c, 3, 54, 39
5, 11520, Note_on_c, 3, 54, 0
5, 11520, Note_on_c, 3, 55, 39
5, 11712, Note_on_c, 3, 55, 0
5, 11712, Note_on_c, 3, 50, 39
5, 11904, Note_on_c, 3, 50, 0
5, 11904, Note_on_c, 3, 43, 39
5, 12096, Note_on_c, 3, 43, 0
5, 12288, Note_on_c, 3, 55, 39
5, 12480, Note_on_c, 3, 55, 0
5, 12672, Note_on_c, 3, 55, 39
5, 12864, Note_on_c, 3, 55, 0
5, 13056, Note_on_c, 3, 55, 39
5, 13248, Note_on_c, 3, 55, 0
5, 13440, Note_on_c, 3, 55, 39
5, 13632, Note_on_c, 3, 55, 0
5, 13824, Note_on_c, 3, 55, 39
5, 14016, Note_on_c, 3, 55, 0
5, 14208, Note_on_c, 3, 55, 39
5, 14400, Note_on_c, 3, 55, 0
5, 14592, Note_on_c, 3, 55, 39
5, 14784, Note_on_c, 3, 55, 0
5, 14976, Note_on_c, 3, 53, 39
5, 15168, Note_on_c, 3, 53, 0
5, 15360, Note_on_c, 3, 52, 39
5, 15552, Note_on_c, 3, 52, 0
5, 15744, Note_on_c, 3, 52, 39
5, 15936, Note_on_c, 3, 52, 0
5, 16128, Note_on_c, 3, 50, 39
5, 16320, Note_on_c, 3, 50, 0
5, 16512, Note_on_c, 3, 50, 39
5, 16704, Note_on_c, 3, 50, 0
5, 16896, Note_on_c, 3, 49, 39
5, 17664, Note_on_c, 3, 49, 0
5, 17664, Note_on_c, 3, 50, 39
5, 18048, Note_on_c, 3, 50, 0
5, 18048, Note_on_c, 3, 50, 39
5, 18432, Note_on_c, 3, 50, 0
5, 18432, Note_on_c, 3, 55, 39
5, 18624, Note_on_c, 3, 55, 0
5, 18816, Note_on_c, 3, 55, 39
5, 19008, Note_on_c, 3, 55, 0
5, 19200, Note_on_c, 3, 55, 39
5, 19392, Note_on_c, 3, 55, 0
5, 19584, Note_on_c, 3, 55, 39
5, 19776, Note_on_c, 3, 55, 0
5, 19968, Note_on_c, 3, 55, 39
5, 20160, Note_on_c, 3, 55, 0
5, 20352, Note_on_c, 3, 55, 39
5, 20544, Note_on_c, 3, 55, 0
5, 20736, Note_on_c, 3, 55, 39
5, 20928, Note_on_c, 3, 55, 0
5, 21120, Note_on_c, 3, 53, 39
5, 21312, Note_on_c, 3, 53, 0
5, 21504, Note_on_c, 3, 52, 39
5, 21696, Note_on_c, 3, 52, 0
5, 21888, Note_on_c, 3, 52, 39
5, 22080, Note_on_c, 3, 52, 0
5, 22272, Note_on_c, 3, 50, 39
5, 22464, Note_on_c, 3, 50, 0
5, 22656, Note_on_c, 3, 50, 39
5, 22848, Note_on_c, 3, 50, 0
5, 23040, Note_on_c, 3, 50, 39
5, 23424, Note_on_c, 3, 50, 0
5, 23424, Note_on_c, 3, 50, 39
5, 23808, Note_on_c, 3, 50, 0
5, 23808, Note_on_c, 3, 50, 39
5, 24000, Note_on_c, 3, 50, 0
5, 24000, Note_on_c, 3, 50, 39
5, 24192, Note_on_c, 3, 50, 0
5, 24192, Note_on_c, 3, 43, 39
5, 24384, Note_on_c, 3, 43, 0
5, 24576, Note_on_c, 3, 43, 39
5, 24768, Note_on_c, 3, 43, 0
5, 24768, Note_on_c, 3, 50, 39
5, 24960, Note_on_c, 3, 50, 0
5, 24960, Note_on_c, 3, 52, 39
5, 25152, Note_on_c, 3, 52, 0
5, 25152, Note_on_c, 3, 50, 39
5, 25344, Note_on_c, 3, 50, 0
5, 25344, Note_on_c, 3, 43, 39
5, 25536, Note_on_c, 3, 43, 0
5, 25536, Note_on_c, 3, 50, 39
5, 25728, Note_on_c, 3, 50, 0
5, 25728, Note_on_c, 3, 47, 39
5, 25920, Note_on_c, 3, 47, 0
5, 25920, Note_on_c, 3, 50, 39
5, 26112, Note_on_c, 3, 50, 0
5, 26112, Note_on_c, 3, 43, 39
5, 26304, Note_on_c, 3, 43, 0
5, 26304, Note_on_c, 3, 50, 39
5, 26496, Note_on_c, 3, 50, 0
5, 26496, Note_on_c, 3, 52, 39
5, 26688, Note_on_c, 3, 52, 0
5, 26688, Note_on_c, 3, 50, 39
5, 26880, Note_on_c, 3, 50, 0
5, 26880, Note_on_c, 3, 48, 39
5, 27072, Note_on_c, 3, 48, 0
5, 27072, Note_on_c, 3, 55, 39
5, 27264, Note_on_c, 3, 55, 0
5, 27264, Note_on_c, 3, 52, 39
5, 27456, Note_on_c, 3, 52, 0
5, 27456, Note_on_c, 3, 55, 39
5, 27648, Note_on_c, 3, 55, 0
5, 27648, Note_on_c, 3, 45, 39
5, 27840, Note_on_c, 3, 45, 0
5, 27840, Note_on_c, 3, 52, 39
5, 28032, Note_on_c, 3, 52, 0
5, 28032, Note_on_c, 3, 50, 39
5, 28224, Note_on_c, 3, 50, 0
5, 28224, Note_on_c, 3, 48, 39
5, 28416, Note_on_c, 3, 48, 0
5, 28416, Note_on_c, 3, 50, 39
5, 28608, Note_on_c, 3, 50, 0
5, 28608, Note_on_c, 3, 45, 39
5, 28800, Note_on_c, 3, 45, 0
5, 28800, Note_on_c, 3, 38, 39
5, 28992, Note_on_c, 3, 38, 0
5, 28992, Note_on_c, 3, 45, 39
5, 29184, Note_on_c, 3, 45, 0
5, 29184, Note_on_c, 3, 50, 39
5, 29376, Note_on_c, 3, 50, 0
5, 29376, Note_on_c, 3, 45, 39
5, 29568, Note_on_c, 3, 45, 0
5, 29568, Note_on_c, 3, 38, 39
5, 29760, Note_on_c, 3, 38, 0
5, 29760, Note_on_c, 3, 50, 39
5, 29952, Note_on_c, 3, 50, 0
5, 29952, Note_on_c, 3, 43, 39
5, 30144, Note_on_c, 3, 43, 0
5, 30144, Note_on_c, 3, 50, 39
5, 30336, Note_on_c, 3, 50, 0
5, 30336, Note_on_c, 3, 47, 39
5, 30528, Note_on_c, 3, 47, 0
5, 30528, Note_on_c, 3, 50, 39
5, 30720, Note_on_c, 3, 50, 0
5, 30720, Note_on_c, 3, 43, 39
5, 30912, Note_on_c, 3, 43, 0
5, 30912, Note_on_c, 3, 50, 39
5, 31104, Note_on_c, 3, 50, 0
5, 31104, Note_on_c, 3, 52, 39
5, 31296, Note_on_c, 3, 52, 0
5, 31296, Note_on_c, 3, 50, 39
5, 31488, Note_on_c, 3, 50, 0
5, 31488, Note_on_c, 3, 43, 39
5, 31680, Note_on_c, 3, 43, 0
5, 31680, Note_on_c, 3, 50, 39
5, 31872, Note_on_c, 3, 50, 0
5, 31872, Note_on_c, 3, 47, 39
5, 32064, Note_on_c, 3, 47, 0
5, 32064, Note_on_c, 3, 50, 39
5, 32256, Note_on_c, 3, 50, 0
5, 32256, Note_on_c, 3, 43, 39
5, 32448, Note_on_c, 3, 43, 0
5, 32448, Note_on_c, 3, 50, 39
5, 32640, Note_on_c, 3, 50, 0
5, 32640, Note_on_c, 3, 52, 39
5, 32832, Note_on_c, 3, 52, 0
5, 32832, Note_on_c, 3, 50, 39
5, 33024, Note_on_c, 3, 50, 0
5, 33024, Note_on_c, 3, 48, 39
5, 33216, Note_on_c, 3, 48, 0
5, 33216, Note_on_c, 3, 55, 39
5, 33408, Note_on_c, 3, 55, 0
5, 33408, Note_on_c, 3, 52, 39
5, 33600, Note_on_c, 3, 52, 0
5, 33600, Note_on_c, 3, 55, 39
5, 33792, Note_on_c, 3, 55, 0
5, 33792, Note_on_c, 3, 45, 39
5, 33984, Note_on_c, 3, 45, 0
5, 33984, Note_on_c, 3, 52, 39
5, 34176, Note_on_c, 3, 52, 0
5, 34176, Note_on_c, 3, 50, 39
5, 34368, Note_on_c, 3, 50, 0
5, 34368, Note_on_c, 3, 48, 39
5, 34560, Note_on_c, 3, 48, 0
5, 34560, Note_on_c, 3, 50, 39
5, 34752, Note_on_c, 3, 50, 0
5, 34752, Note_on_c, 3, 50, 39
5, 34944, Note_on_c, 3, 50, 0
5, 34944, Note_on_c, 3, 50, 39
5, 35136, Note_on_c, 3, 50, 0
5, 35136, Note_on_c, 3, 50, 39
5, 35328, Note_on_c, 3, 50, 0
5, 35328, Note_on_c, 3, 48, 39
5, 35520, Note_on_c, 3, 48, 0
5, 35520, Note_on_c, 3, 50, 39
5, 35712, Note_on_c, 3, 50, 0
5, 35712, Note_on_c, 3, 52, 39
5, 35904, Note_on_c, 3, 52, 0
5, 35904, Note_on_c, 3, 54, 39
5, 36096, Note_on_c, 3, 54, 0
5, 36096, Note_on_c, 3, 55, 39
5, 36288, Note_on_c, 3, 55, 0
5, 36288, Note_on_c, 3, 50, 39
5, 36480, Note_on_c, 3, 50, 0
5, 36480, Note_on_c, 3, 43, 39
5, 36672, Note_on_c, 3, 43, 0
5, 36864, Note_on_c, 3, 55, 39
5, 37056, Note_on_c, 3, 55, 0
5, 37248, Note_on_c, 3, 55, 39
5, 37440, Note_on_c, 3, 55, 0
5, 37632, Note_on_c, 3, 55, 39
5, 37824, Note_on_c, 3, 55, 0
5, 38016, Note_on_c, 3, 55, 39
5, 38208, Note_on_c, 3, 55, 0
5, 38400, Note_on_c, 3, 55, 39
5, 38592, Note_on_c, 3, 55, 0
5, 38784, Note_on_c, 3, 55, 39
5, 38976, Note_on_c, 3, 55, 0
5, 39168, Note_on_c, 3, 55, 39
5, 39360, Note_on_c, 3, 55, 0
5, 39552, Note_on_c, 3, 53, 39
5, 39744, Note_on_c, 3, 53, 0
5, 39936, Note_on_c, 3, 52, 39
5, 40128, Note_on_c, 3, 52, 0
5, 40320, Note_on_c, 3, 52, 39
5, 40512, Note_on_c, 3, 52, 0
5, 40704, Note_on_c, 3, 50, 39
5, 40896, Note_on_c, 3, 50, 0
5, 41088, Note_on_c, 3, 50, 39
5, 41280, Note_on_c, 3, 50, 0
5, 41472, Note_on_c, 3, 49, 39
5, 42240, Note_on_c, 3, 49, 0
5, 42240, Note_on_c, 3, 50, 39
5, 42624, Note_on_c, 3, 50, 0
5, 42624, Note_on_c, 3, 50, 39
5, 43008, Note_on_c, 3, 50, 0
5, 43008, Note_on_c, 3, 55, 39
5, 43200, Note_on_c, 3, 55, 0
5, 43392, Note_on_c, 3, 55, 39
5, 43584, Note_on_c, 3, 55, 0
5, 43776, Note_on_c, 3, 55, 39
5, 43968, Note_on_c, 3, 55, 0
5, 44160, Note_on_c, 3, 55, 39
5, 44352, Note_on_c, 3, 55, 0
5, 44544, Note_on_c, 3, 55, 39
5, 44736, Note_on_c, 3, 55, 0
5, 44928, Note_on_c, 3, 55, 39
5, 45120, Note_on_c, 3, 55, 0
5, 45312, Note_on_c, 3, 55, 39
5, 45504, Note_on_c, 3, 55, 0
5, 45696, Note_on_c, 3, 53, 39
5, 45888, Note_on_c, 3, 53, 0
5, 46080, Note_on_c, 3, 52, 39
5, 46272, Note_on_c, 3, 52, 0
5, 46464, Note_on_c, 3, 52, 39
5, 46656, Note_on_c, 3, 52, 0
5, 46848, Note_on_c, 3, 50, 39
5, 47040, Note_on_c, 3, 50, 0
5, 47232, Note_on_c, 3, 50, 39
5, 47424, Note_on_c, 3, 50, 0
5, 47616, Note_on_c, 3, 50, 39
5, 48000, Note_on_c, 3, 50, 0
5, 48000, Note_on_c, 3, 50, 39
5, 48384, Note_on_c, 3, 50, 0
5, 48384, Note_on_c, 3, 50, 39
5, 48576, Note_on_c, 3, 50, 0
5, 48576, Note_on_c, 3, 50, 39
5, 48768, Note_on_c, 3, 50, 0
5, 48768, Note_on_c, 3, 43, 39
5, 48960, Note_on_c, 3, 43, 0
5, 48960, End_track
0, 0, End_of_file
