0 On ch=1 n=62 v=47
192 On ch=1 n=62 v=0
192 On ch=1 n=71 v=47
384 On ch=1 n=71 v=0
384 On ch=1 n=69 v=47
576 On ch=1 n=69 v=0
576 On ch=1 n=67 v=47
768 On ch=1 n=67 v=0
768 On ch=1 n=62 v=47
1344 On ch=1 n=62 v=0
1344 On ch=1 n=62 v=47
1440 On ch=1 n=62 v=0
1440 On ch=1 n=62 v=47
1536 On ch=1 n=62 v=0
1536 On ch=1 n=62 v=47
1728 On ch=1 n=62 v=0
1728 On ch=1 n=71 v=47
1920 On ch=1 n=71 v=0
1920 On ch=1 n=69 v=47
2112 On ch=1 n=69 v=0
2112 On ch=1 n=67 v=47
2304 On ch=1 n=67 v=0
2304 On ch=1 n=64 v=47
3072 On ch=1 n=64 v=0
3072 On ch=1 n=64 v=47
3264 On ch=1 n=64 v=0
3264 On ch=1 n=72 v=47
3456 On ch=1 n=72 v=0
3456 On ch=1 n=71 v=47
3648 On ch=1 n=71 v=0
3648 On ch=1 n=69 v=47
3840 On ch=1 n=69 v=0
3840 On ch=1 n=66 v=47
4608 On ch=1 n=66 v=0
4608 On ch=1 n=74 v=47
4800 On ch=1 n=74 v=0
4800 On ch=1 n=74 v=47
4992 On ch=1 n=74 v=0
4992 On ch=1 n=72 v=47
5184 On ch=1 n=72 v=0
5184 On ch=1 n=69 v=47
5376 On ch=1 n=69 v=0
5376 On ch=1 n=71 v=47
6144 On ch=1 n=71 v=0
6144 On ch=1 n=62 v=47
6336 On ch=1 n=62 v=0
6336 On ch=1 n=71 v=47
6528 On ch=1 n=71 v=0
6528 On ch=1 n=69 v=47
6720 On ch=1 n=69 v=0
6720 On ch=1 n=67 v=47
6912 On ch=1 n=67 v=0
6912 On ch=1 n=62 v=47
7680 On ch=1 n=62 v=0
7680 On ch=1 n=62 v=47
7872 On ch=1 n=62 v=0
7872 On ch=1 n=71 v=47
8064 On ch=1 n=71 v=0
8064 On ch=1 n=69 v=47
8256 On ch=1 n=69 v=0
8256 On ch=1 n=67 v=47
8448 On ch=1 n=67 v=0
8448 On ch=1 n=64 v=47
9024 On ch=1 n=64 v=0
9024 On ch=1 n=64 v=47
9216 On ch=1 n=64 v=0
9216 On ch=1 n=64 v=47
9408 On ch=1 n=64 v=0
9408 On ch=1 n=72 v=47
9600 On ch=1 n=72 v=0
9600 On ch=1 n=71 v=47
9792 On ch=1 n=71 v=0
9792 On ch=1 n=69 v=47
9984 On ch=1 n=69 v=0
9984 On ch=1 n=74 v=47
10176 On ch=1 n=74 v=0
10176 On ch=1 n=74 v=47
10368 On ch=1 n=74 v=0
10368 On ch=1 n=74 v=47
10560 On ch=1 n=74 v=0
10560 On ch=1 n=74 v=47
10752 On ch=1 n=74 v=0
10752 On ch=1 n=76 v=47
10944 On ch=1 n=76 v=0
10944 On ch=1 n=74 v=47
11136 On ch=1 n=74 v=0
11136 On ch=1 n=72 v=47
11328 On ch=1 n=72 v=0
11328 On ch=1 n=69 v=47
11520 On ch=1 n=69 v=0
11520 On ch=1 n=67 v=47
12096 On ch=1 n=67 v=0
12288 On ch=1 n=71 v=47
12480 On ch=1 n=71 v=0
12480 On ch=1 n=71 v=47
12672 On ch=1 n=71 v=0
12672 On ch=1 n=71 v=47
13056 On ch=1 n=71 v=0
13056 On ch=1 n=71 v=47
13248 On ch=1 n=71 v=0
13248 On ch=1 n=71 v=47
13440 On ch=1 n=71 v=0
13440 On ch=1 n=71 v=47
13824 On ch=1 n=71 v=0
13824 On ch=1 n=71 v=47
14016 On ch=1 n=71 v=0
14016 On ch=1 n=74 v=47
14208 On ch=1 n=74 v=0
14208 On ch=1 n=67 v=47
14496 On ch=1 n=67 v=0
14496 On ch=1 n=69 v=47
14592 On ch=1 n=69 v=0
14592 On ch=1 n=71 v=47
15360 On ch=1 n=71 v=0
15360 On ch=1 n=72 v=47
15552 On ch=1 n=72 v=0
15552 On ch=1 n=72 v=47
15744 On ch=1 n=72 v=0
15744 On ch=1 n=72 v=47
16032 On ch=1 n=72 v=0
16032 On ch=1 n=72 v=47
16128 On ch=1 n=72 v=0
16128 On ch=1 n=72 v=47
16320 On ch=1 n=72 v=0
16320 On ch=1 n=71 v=47
16512 On ch=1 n=71 v=0
16512 On ch=1 n=71 v=47
16704 On ch=1 n=71 v=0
16704 On ch=1 n=71 v=47
16800 On ch=1 n=71 v=0
16800 On ch=1 n=71 v=47
16896 On ch=1 n=71 v=0
16896 On ch=1 n=71 v=47
17088 On ch=1 n=71 v=0
17088 On ch=1 n=69 v=47
17280 On ch=1 n=69 v=0
17280 On ch=1 n=69 v=47
17472 On ch=1 n=69 v=0
17472 On ch=1 n=71 v=47
17664 On ch=1 n=71 v=0
17664 On ch=1 n=69 v=47
18048 On ch=1 n=69 v=0
18048 On ch=1 n=74 v=47
18432 On ch=1 n=74 v=0
18432 On ch=1 n=71 v=47
18624 On ch=1 n=71 v=0
18624 On ch=1 n=71 v=47
18816 On ch=1 n=71 v=0
18816 On ch=1 n=71 v=47
19200 On ch=1 n=71 v=0
19200 On ch=1 n=71 v=47
19392 On ch=1 n=71 v=0
19392 On ch=1 n=71 v=47
19584 On ch=1 n=71 v=0
19584 On ch=1 n=71 v=47
19968 On ch=1 n=71 v=0
19968 On ch=1 n=71 v=47
20160 On ch=1 n=71 v=0
20160 On ch=1 n=74 v=47
20352 On ch=1 n=74 v=0
20352 On ch=1 n=67 v=47
20640 On ch=1 n=67 v=0
20640 On ch=1 n=69 v=47
20736 On ch=1 n=69 v=0
20736 On ch=1 n=71 v=47
21504 On ch=1 n=71 v=0
21504 On ch=1 n=72 v=47
21696 On ch=1 n=72 v=0
21696 On ch=1 n=72 v=47
21888 On ch=1 n=72 v=0
21888 On ch=1 n=72 v=47
22176 On ch=1 n=72 v=0
22176 On ch=1 n=72 v=47
22272 On ch=1 n=72 v=0
22272 On ch=1 n=72 v=47
22464 On ch=1 n=72 v=0
22464 On ch=1 n=71 v=47
22656 On ch=1 n=71 v=0
22656 On ch=1 n=71 v=47
22848 On ch=1 n=71 v=0
22848 On ch=1 n=71 v=47
22944 On ch=1 n=71 v=0
22944 On ch=1 n=71 v=47
23040 On ch=1 n=71 v=0
23040 On ch=1 n=74 v=47
23232 On ch=1 n=74 v=0
23232 On ch=1 n=74 v=47
23424 On ch=1 n=74 v=0
23424 On ch=1 n=72 v=47
23616 On ch=1 n=72 v=0
23616 On ch=1 n=69 v=47
23808 On ch=1 n=69 v=0
23808 On ch=1 n=67 v=47
24000 On ch=1 n=67 v=0
24000 On ch=1 n=74 v=47
24192 On ch=1 n=74 v=0
24192 On ch=1 n=79 v=47
24384 On ch=1 n=79 v=0
24576 On ch=1 n=62 v=47
24768 On ch=1 n=62 v=0
24768 On ch=1 n=71 v=47
24960 On ch=1 n=71 v=0
24960 On ch=1 n=69 v=47
25152 On ch=1 n=69 v=0
25152 On ch=1 n=67 v=47
25344 On ch=1 n=67 v=0
25344 On ch=1 n=62 v=47
25920 On ch=1 n=62 v=0
25920 On ch=1 n=62 v=47
26016 On ch=1 n=62 v=0
26016 On ch=1 n=62 v=47
26112 On ch=1 n=62 v=0
26112 On ch=1 n=62 v=47
26304 On ch=1 n=62 v=0
26304 On ch=1 n=71 v=47
26496 On ch=1 n=71 v=0
26496 On ch=1 n=69 v=47
26688 On ch=1 n=69 v=0
26688 On ch=1 n=67 v=47
26880 On ch=1 n=67 v=0
26880 On ch=1 n=64 v=47
27648 On ch=1 n=64 v=0
27648 On ch=1 n=64 v=47
27840 On ch=1 n=64 v=0
27840 On ch=1 n=72 v=47
28032 On ch=1 n=72 v=0
28032 On ch=1 n=71 v=47
28224 On ch=1 n=71 v=0
28224 On ch=1 n=69 v=47
28416 On ch=1 n=69 v=0
28416 On ch=1 n=66 v=47
29184 On ch=1 n=66 v=0
29184 On ch=1 n=74 v=47
29376 On ch=1 n=74 v=0
29376 On ch=1 n=74 v=47
29568 On ch=1 n=74 v=0
29568 On ch=1 n=72 v=47
29760 On ch=1 n=72 v=0
29760 On ch=1 n=69 v=47
29952 On ch=1 n=69 v=0
29952 On ch=1 n=71 v=47
30720 On ch=1 n=71 v=0
30720 On ch=1 n=62 v=47
30912 On ch=1 n=62 v=0
30912 On ch=1 n=71 v=47
31104 On ch=1 n=71 v=0
31104 On ch=1 n=69 v=47
31296 On ch=1 n=69 v=0
31296 On ch=1 n=67 v=47
31488 On ch=1 n=67 v=0
31488 On ch=1 n=62 v=47
32256 On ch=1 n=62 v=0
32256 On ch=1 n=62 v=47
32448 On ch=1 n=62 v=0
32448 On ch=1 n=71 v=47
32640 On ch=1 n=71 v=0
32640 On ch=1 n=69 v=47
32832 On ch=1 n=69 v=0
32832 On ch=1 n=67 v=47
33024 On ch=1 n=67 v=0
33024 On ch=1 n=64 v=47
33600 On ch=1 n=64 v=0
33600 On ch=1 n=64 v=47
33792 On ch=1 n=64 v=0
33792 On ch=1 n=64 v=47
33984 On ch=1 n=64 v=0
33984 On ch=1 n=72 v=47
34176 On ch=1 n=72 v=0
34176 On ch=1 n=71 v=47
34368 On ch=1 n=71 v=0
34368 On ch=1 n=69 v=47
34560 On ch=1 n=69 v=0
34560 On ch=1 n=74 v=47
34752 On ch=1 n=74 v=0
34752 On ch=1 n=74 v=47
34944 On ch=1 n=74 v=0
34944 On ch=1 n=74 v=47
35136 On ch=1 n=74 v=0
35136 On ch=1 n=74 v=47
35328 On ch=1 n=74 v=0
35328 On ch=1 n=76 v=47
35520 On ch=1 n=76 v=0
35520 On ch=1 n=74 v=47
35712 On ch=1 n=74 v=0
35712 On ch=1 n=72 v=47
35904 On ch=1 n=72 v=0
35904 On ch=1 n=69 v=47
36096 On ch=1 n=69 v=0
36096 On ch=1 n=67 v=47
36672 On ch=1 n=67 v=0
36864 On ch=1 n=71 v=47
37056 On ch=1 n=71 v=0
37056 On ch=1 n=71 v=47
37248 On ch=1 n=71 v=0
37248 On ch=1 n=71 v=47
37632 On ch=1 n=71 v=0
37632 On ch=1 n=71 v=47
37824 On ch=1 n=71 v=0
37824 On ch=1 n=71 v=47
38016 On ch=1 n=71 v=0
38016 On ch=1 n=71 v=47
38400 On ch=1 n=71 v=0
38400 On ch=1 n=71 v=47
38592 On ch=1 n=71 v=0
38592 On ch=1 n=74 v=47
38784 On ch=1 n=74 v=0
38784 On ch=1 n=67 v=47
39072 On ch=1 n=67 v=0
39072 On ch=1 n=69 v=47
39168 On ch=1 n=69 v=0
39168 On ch=1 n=71 v=47
39936 On ch=1 n=71 v=0
39936 On ch=1 n=72 v=47
40128 On ch=1 n=72 v=0
40128 On ch=1 n=72 v=47
40320 On ch=1 n=72 v=0
40320 On ch=1 n=72 v=47
40608 On ch=1 n=72 v=0
40608 On ch=1 n=72 v=47
40704 On ch=1 n=72 v=0
40704 On ch=1 n=72 v=47
40896 On ch=1 n=72 v=0
40896 On ch=1 n=71 v=47
41088 On ch=1 n=71 v=0
41088 On ch=1 n=71 v=47
41280 On ch=1 n=71 v=0
41280 On ch=1 n=71 v=47
41376 On ch=1 n=71 v=0
41376 On ch=1 n=71 v=47
41472 On ch=1 n=71 v=0
41472 On ch=1 n=71 v=47
41664 On ch=1 n=71 v=0
41664 On ch=1 n=69 v=47
41856 On ch=1 n=69 v=0
41856 On ch=1 n=69 v=47
42048 On ch=1 n=69 v=0
42048 On ch=1 n=71 v=47
42240 On ch=1 n=71 v=0
42240 On ch=1 n=69 v=47
42624 On ch=1 n=69 v=0
42624 On ch=1 n=74 v=47
43008 On ch=1 n=74 v=0
43008 On ch=1 n=71 v=47
43200 On ch=1 n=71 v=0
43200 On ch=1 n=71 v=47
43392 On ch=1 n=71 v=0
43392 On ch=1 n=71 v=47
43776 On ch=1 n=71 v=0
43776 On ch=1 n=71 v=47
43968 On ch=1 n=71 v=0
43968 On ch=1 n=71 v=47
44160 On ch=1 n=71 v=0
44160 On ch=1 n=71 v=47
44544 On ch=1 n=71 v=0
44544 On ch=1 n=71 v=47
44736 On ch=1 n=71 v=0
44736 On ch=1 n=74 v=47
44928 On ch=1 n=74 v=0
44928 On ch=1 n=67 v=47
45216 On ch=1 n=67 v=0
45216 On ch=1 n=69 v=47
45312 On ch=1 n=69 v=0
45312 On ch=1 n=71 v=47
46080 On ch=1 n=71 v=0
46080 On ch=1 n=72 v=47
46272 On ch=1 n=72 v=0
46272 On ch=1 n=72 v=47
46464 On ch=1 n=72 v=0
46464 On ch=1 n=72 v=47
46752 On ch=1 n=72 v=0
46752 On ch=1 n=72 v=47
46848 On ch=1 n=72 v=0
46848 On ch=1 n=72 v=47
47040 On ch=1 n=72 v=0
47040 On ch=1 n=71 v=47
47232 On ch=1 n=71 v=0
47232 On ch=1 n=71 v=47
47424 On ch=1 n=71 v=0
47424 On ch=1 n=71 v=47
47520 On ch=1 n=71 v=0
47520 On ch=1 n=71 v=47
47616 On ch=1 n=71 v=0
47616 On ch=1 n=74 v=47
47808 On ch=1 n=74 v=0
47808 On ch=1 n=74 v=47
48000 On ch=1 n=74 v=0
48000 On ch=1 n=72 v=47
48192 On ch=1 n=72 v=0
48192 On ch=1 n=69 v=47
48384 On ch=1 n=69 v=0
48384 On ch=1 n=67 v=47
48576 On ch=1 n=67 v=0
48576 On ch=1 n=74 v=47
48768 On ch=1 n=74 v=0
48768 On ch=1 n=79 v=47
48960 On ch=1 n=79 v=0
48960 Meta TrkEnd
TrkEnd
MTrk
0 Meta InstrName "                "
12288 On ch=2 n=62 v=39
12480 On ch=2 n=62 v=0
12672 On ch=2 n=62 v=39
12864 On ch=2 n=62 v=0
13056 On ch=2 n=62 v=39
13248 On ch=2 n=62 v=0
13440 On ch=2 n=62 v=39
13632 On ch=2 n=62 v=0
13824 On ch=2 n=62 v=39
14016 On ch=2 n=62 v=0
14208 On ch=2 n=62 v=39
14400 On ch=2 n=62 v=0
14592 On ch=2 n=62 v=39
14784 On ch=2 n=62 v=0
14976 On ch=2 n=59 v=39
15168 On ch=2 n=59 v=0
15360 On ch=2 n=60 v=39
15552 On ch=2 n=60 v=0
15744 On ch=2 n=60 v=39
15936 On ch=2 n=60 v=0
16128 On ch=2 n=59 v=39
16320 On ch=2 n=59 v=0
16512 On ch=2 n=59 v=39
16704 On ch=2 n=59 v=0
16896 On ch=2 n=57 v=39
17664 On ch=2 n=57 v=0
17664 On ch=2 n=57 v=39
18048 On ch=2 n=57 v=0
18048 On ch=2 n=60 v=39
18432 On ch=2 n=60 v=0
18432 On ch=2 n=62 v=39
18624 On ch=2 n=62 v=0
18816 On ch=2 n=62 v=39
19008 On ch=2 n=62 v=0
19200 On ch=2 n=62 v=39
19392 On ch=2 n=62 v=0
19584 On ch=2 n=62 v=39
19776 On ch=2 n=62 v=0
19968 On ch=2 n=62 v=39
20160 On ch=2 n=62 v=0
20352 On ch=2 n=62 v=39
20544 On ch=2 n=62 v=0
20736 On ch=2 n=62 v=39
20928 On ch=2 n=62 v=0
21120 On ch=2 n=59 v=39
21312 On ch=2 n=59 v=0
21504 On ch=2 n=60 v=39
21696 On ch=2 n=60 v=0
21888 On ch=2 n=60 v=39
22080 On ch=2 n=60 v=0
22272 On ch=2 n=59 v=39
22464 On ch=2 n=59 v=0
22656 On ch=2 n=59 v=39
22848 On ch=2 n=59 v=0
23040 On ch=2 n=57 v=39
23424 On ch=2 n=57 v=0
23424 On ch=2 n=60 v=39
23808 On ch=2 n=60 v=0
23808 On ch=2 n=59 v=39
24000 On ch=2 n=59 v=0
36864 On ch=2 n=62 v=39
37056 On ch=2 n=62 v=0
37248 On ch=2 n=62 v=39
37440 On ch=2 n=62 v=0
37632 On ch=2 n=62 v=39
37824 On ch=2 n=62 v=0
38016 On ch=2 n=62 v=39
38208 On ch=2 n=62 v=0
38400 On ch=2 n=62 v=39
38592 On ch=2 n=62 v=0
38784 On ch=2 n=62 v=39
38976 On ch=2 n=62 v=0
39168 On ch=2 n=62 v=39
39360 On ch=2 n=62 v=0
39552 On ch=2 n=59 v=39
39744 On ch=2 n=59 v=0
39936 On ch=2 n=60 v=39
40128 On ch=2 n=60 v=0
40320 On ch=2 n=60 v=39
40512 On ch=2 n=60 v=0
40704 On ch=2 n=59 v=39
40896 On ch=2 n=59 v=0
41088 On ch=2 n=59 v=39
41280 On ch=2 n=59 v=0
41472 On ch=2 n=57 v=39
42240 On ch=2 n=57 v=0
42240 On ch=2 n=57 v=39
42624 On ch=2 n=57 v=0
42624 On ch=2 n=60 v=39
43008 On ch=2 n=60 v=0
43008 On ch=2 n=62 v=39
43200 On ch=2 n=62 v=0
43392 On ch=2 n=62 v=39
43584 On ch=2 n=62 v=0
43776 On ch=2 n=62 v=39
43968 On ch=2 n=62 v=0
44160 On ch=2 n=62 v=39
44352 On ch=2 n=62 v=0
44544 On ch=2 n=62 v=39
44736 On ch=2 n=62 v=0
44928 On ch=2 n=62 v=39
45120 On ch=2 n=62 v=0
45312 On ch=2 n=62 v=39
45504 On ch=2 n=62 v=0
45696 On ch=2 n=59 v=39
45888 On ch=2 n=59 v=0
46080 On ch=2 n=60 v=39
46272 On ch=2 n=60 v=0
46464 On ch=2 n=60 v=39
46656 On ch=2 n=60 v=0
46848 On ch=2 n=59 v=39
47040 On ch=2 n=59 v=0
47232 On ch=2 n=59 v=39
47424 On ch=2 n=59 v=0
47616 On ch=2 n=57 v=39
48000 On ch=2 n=57 v=0
48000 On ch=2 n=60 v=39
48384 On ch=2 n=60 v=0
48384 On ch=2 n=59 v=39
48576 On ch=2 n=59 v=0
48576 Meta TrkEnd
TrkEnd
MTrk
0 Meta InstrName "                "
12288 On ch=3 n=59 v=31
12480 On ch=3 n=59 v=0
12672 On ch=3 n=59 v=31
12864 On ch=3 n=59 v=0
13056 On ch=3 n=59 v=31
13248 On ch=3 n=59 v=0
13440 On ch=3 n=59 v=31
13632 On ch=3 n=59 v=0
13824 On ch=3 n=59 v=31
14016 On ch=3 n=59 v=0
14208 On ch=3 n=59 v=31
14400 On ch=3 n=59 v=0
14592 On ch=3 n=59 v=31
14784 On ch=3 n=59 v=0
14976 On ch=3 n=55 v=31
15168 On ch=3 n=55 v=0
15360 On ch=3 n=55 v=31
15552 On ch=3 n=55 v=0
15744 On ch=3 n=55 v=31
15936 On ch=3 n=55 v=0
16128 On ch=3 n=55 v=31
16320 On ch=3 n=55 v=0
16512 On ch=3 n=55 v=31
16704 On ch=3 n=55 v=0
16896 On ch=3 n=55 v=31
17664 On ch=3 n=55 v=0
17664 On ch=3 n=54 v=31
18048 On ch=3 n=54 v=0
18048 On ch=3 n=54 v=31
18432 On ch=3 n=54 v=0
18432 On ch=3 n=59 v=31
18624 On ch=3 n=59 v=0
18816 On ch=3 n=59 v=31
19008 On ch=3 n=59 v=0
19200 On ch=3 n=59 v=31
19392 On ch=3 n=59 v=0
19584 On ch=3 n=59 v=31
19776 On ch=3 n=59 v=0
19968 On ch=3 n=59 v=31
20160 On ch=3 n=59 v=0
20352 On ch=3 n=59 v=31
20544 On ch=3 n=59 v=0
20736 On ch=3 n=59 v=31
20928 On ch=3 n=59 v=0
21120 On ch=3 n=55 v=31
21312 On ch=3 n=55 v=0
21504 On ch=3 n=55 v=31
21696 On ch=3 n=55 v=0
21888 On ch=3 n=55 v=31
22080 On ch=3 n=55 v=0
22272 On ch=3 n=55 v=31
22464 On ch=3 n=55 v=0
22656 On ch=3 n=55 v=31
22848 On ch=3 n=55 v=0
23040 On ch=3 n=54 v=31
23424 On ch=3 n=54 v=0
23424 On ch=3 n=54 v=31
23808 On ch=3 n=54 v=0
23808 On ch=3 n=54 v=31
24000 On ch=3 n=54 v=0
24576 On ch=3 n=31 v=47
24624 On ch=3 n=31 v=0
24768 On ch=3 n=38 v=47
24816 On ch=3 n=38 v=0
24960 On ch=3 n=40 v=47
25008 On ch=3 n=40 v=0
25152 On ch=3 n=38 v=47
25200 On ch=3 n=38 v=0
25344 On ch=3 n=31 v=47
25392 On ch=3 n=31 v=0
25536 On ch=3 n=38 v=47
25584 On ch=3 n=38 v=0
25728 On ch=3 n=35 v=47
25776 On ch=3 n=35 v=0
25920 On ch=3 n=38 v=47
25968 On ch=3 n=38 v=0
26112 On ch=3 n=31 v=55
26160 On ch=3 n=31 v=0
26304 On ch=3 n=38 v=55
26352 On ch=3 n=38 v=0
26496 On ch=3 n=40 v=55
26544 On ch=3 n=40 v=0
26688 On ch=3 n=38 v=55
26736 On ch=3 n=38 v=0
26880 On ch=3 n=36 v=55
26928 On ch=3 n=36 v=0
27072 On ch=3 n=43 v=55
27120 On ch=3 n=43 v=0
27264 On ch=3 n=40 v=55
27312 On ch=3 n=40 v=0
27456 On ch=3 n=43 v=55
27504 On ch=3 n=43 v=0
27648 On ch=3 n=33 v=55
27696 On ch=3 n=33 v=0
27840 On ch=3 n=40 v=55
27888 On ch=3 n=40 v=0
28032 On ch=3 n=38 v=55
28080 On ch=3 n=38 v=0
28224 On ch=3 n=36 v=55
28272 On ch=3 n=36 v=0
28416 On ch=3 n=38 v=55
28464 On ch=3 n=38 v=0
28608 On ch=3 n=33 v=55
28656 On ch=3 n=33 v=0
28800 On ch=3 n=26 v=55
28848 On ch=3 n=26 v=0
28992 On ch=3 n=33 v=55
29040 On ch=3 n=33 v=0
29184 On ch=3 n=38 v=55
29232 On ch=3 n=38 v=0
29376 On ch=3 n=33 v=55
29424 On ch=3 n=33 v=0
29568 On ch=3 n=26 v=55
29616 On ch=3 n=26 v=0
29760 On ch=3 n=38 v=55
29808 On ch=3 n=38 v=0
29952 On ch=3 n=31 v=55
30000 On ch=3 n=31 v=0
30144 On ch=3 n=38 v=55
30192 On ch=3 n=38 v=0
30336 On ch=3 n=35 v=55
30384 On ch=3 n=35 v=0
30528 On ch=3 n=38 v=55
30576 On ch=3 n=38 v=0
30720 On ch=3 n=31 v=55
30768 On ch=3 n=31 v=0
30912 On ch=3 n=38 v=55
30960 On ch=3 n=38 v=0
31104 On ch=3 n=40 v=55
31152 On ch=3 n=40 v=0
31296 On ch=3 n=38 v=55
31344 On ch=3 n=38 v=0
31488 On ch=3 n=31 v=55
31536 On ch=3 n=31 v=0
31680 On ch=3 n=38 v=55
31728 On ch=3 n=38 v=0
31872 On ch=3 n=35 v=55
31920 On ch=3 n=35 v=0
32064 On ch=3 n=38 v=55
32112 On ch=3 n=38 v=0
32256 On ch=3 n=31 v=55
32304 On ch=3 n=31 v=0
32448 On ch=3 n=38 v=55
32496 On ch=3 n=38 v=0
32640 On ch=3 n=40 v=55
32688 On ch=3 n=40 v=0
32832 On ch=3 n=38 v=55
32880 On ch=3 n=38 v=0
33024 On ch=3 n=36 v=55
33072 On ch=3 n=36 v=0
33216 On ch=3 n=43 v=55
33264 On ch=3 n=43 v=0
33408 On ch=3 n=40 v=55
33456 On ch=3 n=40 v=0
33600 On ch=3 n=43 v=55
33648 On ch=3 n=43 v=0
33792 On ch=3 n=33 v=55
33840 On ch=3 n=33 v=0
33984 On ch=3 n=40 v=55
34032 On ch=3 n=40 v=0
34176 On ch=3 n=38 v=55
34224 On ch=3 n=38 v=0
34368 On ch=3 n=36 v=55
34416 On ch=3 n=36 v=0
34560 On ch=3 n=38 v=55
34608 On ch=3 n=38 v=0
34752 On ch=3 n=38 v=55
34800 On ch=3 n=38 v=0
34944 On ch=3 n=38 v=55
34992 On ch=3 n=38 v=0
35136 On ch=3 n=38 v=55
35184 On ch=3 n=38 v=0
35328 On ch=3 n=36 v=55
35376 On ch=3 n=36 v=0
35520 On ch=3 n=38 v=55
35568 On ch=3 n=38 v=0
35712 On ch=3 n=40 v=55
35760 On ch=3 n=40 v=0
35904 On ch=3 n=42 v=55
35952 On ch=3 n=42 v=0
36096 On ch=3 n=43 v=55
36144 On ch=3 n=43 v=0
36288 On ch=3 n=38 v=55
36336 On ch=3 n=38 v=0
36480 On ch=3 n=31 v=55
36528 On ch=3 n=31 v=0
36864 On ch=3 n=59 v=31
37056 On ch=3 n=59 v=0
37248 On ch=3 n=59 v=31
37440 On ch=3 n=59 v=0
37632 On ch=3 n=59 v=31
37824 On ch=3 n=59 v=0
38016 On ch=3 n=59 v=31
38208 On ch=3 n=59 v=0
38400 On ch=3 n=59 v=31
38592 On ch=3 n=59 v=0
38784 On ch=3 n=59 v=31
38976 On ch=3 n=59 v=0
39168 On ch=3 n=59 v=31
39360 On ch=3 n=59 v=0
39552 On ch=3 n=55 v=31
39744 On ch=3 n=55 v=0
39936 On ch=3 n=55 v=31
40128 On ch=3 n=55 v=0
40320 On ch=3 n=55 v=31
40512 On ch=3 n=55 v=0
40704 On ch=3 n=55 v=31
40896 On ch=3 n=55 v=0
41088 On ch=3 n=55 v=31
41280 On ch=3 n=55 v=0
41472 On ch=3 n=55 v=31
42240 On ch=3 n=55 v=0
42240 On ch=3 n=54 v=31
42624 On ch=3 n=54 v=0
42624 On ch=3 n=54 v=31
43008 On ch=3 n=54 v=0
43008 On ch=3 n=59 v=31
43200 On ch=3 n=59 v=0
43392 On ch=3 n=59 v=31
43584 On ch=3 n=59 v=0
43776 On ch=3 n=59 v=31
43968 On ch=3 n=59 v=0
44160 On ch=3 n=59 v=31
44352 On ch=3 n=59 v=0
44544 On ch=3 n=59 v=31
44736 On ch=3 n=59 v=0
44928 On ch=3 n=59 v=31
45120 On ch=3 n=59 v=0
45312 On ch=3 n=59 v=31
45504 On ch=3 n=59 v=0
45696 On ch=3 n=55 v=31
45888 On ch=3 n=55 v=0
46080 On ch=3 n=55 v=31
46272 On ch=3 n=55 v=0
46464 On ch=3 n=55 v=31
46656 On ch=3 n=55 v=0
46848 On ch=3 n=55 v=31
47040 On ch=3 n=55 v=0
47232 On ch=3 n=55 v=31
47424 On ch=3 n=55 v=0
47616 On ch=3 n=54 v=31
48000 On ch=3 n=54 v=0
48000 On ch=3 n=54 v=31
48384 On ch=3 n=54 v=0
48384 On ch=3 n=54 v=31
48576 On ch=3 n=54 v=0
48576 Meta TrkEnd
TrkEnd
MTrk
0 Meta InstrName "                "
0 On ch=4 n=43 v=39
192 On ch=4 n=43 v=0
192 On ch=4 n=50 v=39
384 On ch=4 n=50 v=0
384 On ch=4 n=52 v=39
576 On ch=4 n=52 v=0
576 On ch=4 n=50 v=39
768 On ch=4 n=50 v=0
768 On ch=4 n=43 v=39
960 On ch=4 n=43 v=0
960 On ch=4 n=50 v=39
1152 On ch=4 n=50 v=0
1152 On ch=4 n=47 v=39
1344 On ch=4 n=47 v=0
1344 On ch=4 n=50 v=39
1536 On ch=4 n=50 v=0
1536 On ch=4 n=43 v=39
1728 On ch=4 n=43 v=0
1728 On ch=4 n=50 v=39
1920 On ch=4 n=50 v=0
1920 On ch=4 n=52 v=39
2112 On ch=4 n=52 v=0
2112 On ch=4 n=50 v=39
2304 On ch=4 n=50 v=0
2304 On ch=4 n=48 v=39
2496 On ch=4 n=48 v=0
2496 On ch=4 n=55 v=39
2688 On ch=4 n=55 v=0
2688 On ch=4 n=52 v=39
2880 On ch=4 n=52 v=0
2880 On ch=4 n=55 v=39
3072 On ch=4 n=55 v=0
3072 On ch=4 n=45 v=39
3264 On ch=4 n=45 v=0
3264 On ch=4 n=52 v=39
3456 On ch=4 n=52 v=0
3456 On ch=4 n=50 v=39
3648 On ch=4 n=50 v=0
3648 On ch=4 n=48 v=39
3840 On ch=4 n=48 v=0
3840 On ch=4 n=50 v=39
4032 On ch=4 n=50 v=0
4032 On ch=4 n=45 v=39
4224 On ch=4 n=45 v=0
4224 On ch=4 n=38 v=39
4416 On ch=4 n=38 v=0
4416 On ch=4 n=45 v=39
4608 On ch=4 n=45 v=0
4608 On ch=4 n=50 v=39
4800 On ch=4 n=50 v=0
4800 On ch=4 n=45 v=39
4992 On ch=4 n=45 v=0
4992 On ch=4 n=38 v=39
5184 On ch=4 n=38 v=0
5184 On ch=4 n=50 v=39
5376 On ch=4 n=50 v=0
5376 On ch=4 n=43 v=39
5568 On ch=4 n=43 v=0
5568 On ch=4 n=50 v=39
5760 On ch=4 n=50 v=0
5760 On ch=4 n=47 v=39
5952 On ch=4 n=47 v=0
5952 On ch=4 n=50 v=39
6144 On ch=4 n=50 v=0
6144 On ch=4 n=43 v=39
6336 On ch=4 n=43 v=0
6336 On ch=4 n=50 v=39
6528 On ch=4 n=50 v=0
6528 On ch=4 n=52 v=39
6720 On ch=4 n=52 v=0
6720 On ch=4 n=50 v=39
6912 On ch=4 n=50 v=0
6912 On ch=4 n=43 v=39
7104 On ch=4 n=43 v=0
7104 On ch=4 n=50 v=39
7296 On ch=4 n=50 v=0
7296 On ch=4 n=47 v=39
7488 On ch=4 n=47 v=0
7488 On ch=4 n=50 v=39
7680 On ch=4 n=50 v=0
7680 On ch=4 n=43 v=39
7872 On ch=4 n=43 v=0
7872 On ch=4 n=50 v=39
8064 On ch=4 n=50 v=0
8064 On ch=4 n=52 v=39
8256 On ch=4 n=52 v=0
8256 On ch=4 n=50 v=39
8448 On ch=4 n=50 v=0
8448 On ch=4 n=48 v=39
8640 On ch=4 n=48 v=0
8640 On ch=4 n=55 v=39
8832 On ch=4 n=55 v=0
8832 On ch=4 n=52 v=39
9024 On ch=4 n=52 v=0
9024 On ch=4 n=55 v=39
9216 On ch=4 n=55 v=0
9216 On ch=4 n=45 v=39
9408 On ch=4 n=45 v=0
9408 On ch=4 n=52 v=39
9600 On ch=4 n=52 v=0
9600 On ch=4 n=50 v=39
9792 On ch=4 n=50 v=0
9792 On ch=4 n=48 v=39
9984 On ch=4 n=48 v=0
9984 On ch=4 n=50 v=39
10176 On ch=4 n=50 v=0
10176 On ch=4 n=50 v=39
10368 On ch=4 n=50 v=0
10368 On ch=4 n=50 v=39
10560 On ch=4 n=50 v=0
10560 On ch=4 n=50 v=39
10752 On ch=4 n=50 v=0
10752 On ch=4 n=48 v=39
10944 On ch=4 n=48 v=0
10944 On ch=4 n=50 v=39
11136 On ch=4 n=50 v=0
11136 On ch=4 n=52 v=39
11328 On ch=4 n=52 v=0
11328 On ch=4 n=54 v=39
11520 On ch=4 n=54 v=0
11520 On ch=4 n=55 v=39
11712 On ch=4 n=55 v=0
11712 On ch=4 n=50 v=39
11904 On ch=4 n=50 v=0
11904 On ch=4 n=43 v=39
12096 On ch=4 n=43 v=0
12288 On ch=4 n=55 v=39
12480 On ch=4 n=55 v=0
12672 On ch=4 n=55 v=39
12864 On ch=4 n=55 v=0
13056 On ch=4 n=55 v=39
13248 On ch=4 n=55 v=0
13440 On ch=4 n=55 v=39
13632 On ch=4 n=55 v=0
13824 On ch=4 n=55 v=39
14016 On ch=4 n=55 v=0
14208 On ch=4 n=55 v=39
14400 On ch=4 n=55 v=0
14592 On ch=4 n=55 v=39
14784 On ch=4 n=55 v=0
14976 On ch=4 n=53 v=39
15168 On ch=4 n=53 v=0
15360 On ch=4 n=52 v=39
15552 On ch=4 n=52 v=0
15744 On ch=4 n=52 v=39
15936 On ch=4 n=52 v=0
16128 On ch=4 n=50 v=39
16320 On ch=4 n=50 v=0
16512 On ch=4 n=50 v=39
16704 On ch=4 n=50 v=0
16896 On ch=4 n=49 v=39
17664 On ch=4 n=49 v=0
17664 On ch=4 n=50 v=39
18048 On ch=4 n=50 v=0
18048 On ch=4 n=50 v=39
18432 On ch=4 n=50 v=0
18432 On ch=4 n=55 v=39
18624 On ch=4 n=55 v=0
18816 On ch=4 n=55 v=39
19008 On ch=4 n=55 v=0
19200 On ch=4 n=55 v=39
19392 On ch=4 n=55 v=0
19584 On ch=4 n=55 v=39
19776 On ch=4 n=55 v=0
19968 On ch=4 n=55 v=39
20160 On ch=4 n=55 v=0
20352 On ch=4 n=55 v=39
20544 On ch=4 n=55 v=0
20736 On ch=4 n=55 v=39
20928 On ch=4 n=55 v=0
21120 On ch=4 n=53 v=39
21312 On ch=4 n=53 v=0
21504 On ch=4 n=52 v=39
21696 On ch=4 n=52 v=0
21888 On ch=4 n=52 v=39
22080 On ch=4 n=52 v=0
22272 On ch=4 n=50 v=39
22464 On ch=4 n=50 v=0
22656 On ch=4 n=50 v=39
22848 On ch=4 n=50 v=0
23040 On ch=4 n=50 v=39
23424 On ch=4 n=50 v=0
23424 On ch=4 n=50 v=39
23808 On ch=4 n=50 v=0
23808 On ch=4 n=50 v=39
24000 On ch=4 n=50 v=0
24000 On ch=4 n=50 v=39
24192 On ch=4 n=50 v=0
24192 On ch=4 n=43 v=39
24384 On ch=4 n=43 v=0
24576 On ch=4 n=43 v=39
24768 On ch=4 n=43 v=0
24768 On ch=4 n=50 v=39
24960 On ch=4 n=50 v=0
24960 On ch=4 n=52 v=39
25152 On ch=4 n=52 v=0
25152 On ch=4 n=50 v=39
25344 On ch=4 n=50 v=0
25344 On ch=4 n=43 v=39
25536 On ch=4 n=43 v=0
25536 On ch=4 n=50 v=39
25728 On ch=4 n=50 v=0
25728 On ch=4 n=47 v=39
25920 On ch=4 n=47 v=0
25920 On ch=4 n=50 v=39
26112 On ch=4 n=50 v=0
26112 On ch=4 n=43 v=39
26304 On ch=4 n=43 v=0
26304 On ch=4 n=50 v=39
26496 On ch=4 n=50 v=0
26496 On ch=4 n=52 v=39
26688 On ch=4 n=52 v=0
26688 On ch=4 n=50 v=39
26880 On ch=4 n=50 v=0
26880 On ch=4 n=48 v=39
27072 On ch=4 n=48 v=0
27072 On ch=4 n=55 v=39
27264 On ch=4 n=55 v=0
27264 On ch=4 n=52 v=39
27456 On ch=4 n=52 v=0
27456 On ch=4 n=55 v=39
27648 On ch=4 n=55 v=0
27648 On ch=4 n=45 v=39
27840 On ch=4 n=45 v=0
27840 On ch=4 n=52 v=39
28032 On ch=4 n=52 v=0
28032 On ch=4 n=50 v=39
28224 On ch=4 n=50 v=0
28224 On ch=4 n=48 v=39
28416 On ch=4 n=48 v=0
28416 On ch=4 n=50 v=39
28608 On ch=4 n=50 v=0
28608 On ch=4 n=45 v=39
28800 On ch=4 n=45 v=0
28800 On ch=4 n=38 v=39
28992 On ch=4 n=38 v=0
28992 On ch=4 n=45 v=39
29184 On ch=4 n=45 v=0
29184 On ch=4 n=50 v=39
29376 On ch=4 n=50 v=0
29376 On ch=4 n=45 v=39
29568 On ch=4 n=45 v=0
29568 On ch=4 n=38 v=39
29760 On ch=4 n=38 v=0
29760 On ch=4 n=50 v=39
29952 On ch=4 n=50 v=0
29952 On ch=4 n=43 v=39
30144 On ch=4 n=43 v=0
30144 On ch=4 n=50 v=39
30336 On ch=4 n=50 v=0
30336 On ch=4 n=47 v=39
30528 On ch=4 n=47 v=0
30528 On ch=4 n=50 v=39
30720 On ch=4 n=50 v=0
30720 On ch=4 n=43 v=39
30912 On ch=4 n=43 v=0
30912 On ch=4 n=50 v=39
31104 On ch=4 n=50 v=0
31104 On ch=4 n=52 v=39
31296 On ch=4 n=52 v=0
31296 On ch=4 n=50 v=39
31488 On ch=4 n=50 v=0
31488 On ch=4 n=43 v=39
31680 On ch=4 n=43 v=0
31680 On ch=4 n=50 v=39
31872 On ch=4 n=50 v=0
31872 On ch=4 n=47 v=39
32064 On ch=4 n=47 v=0
32064 On ch=4 n=50 v=39
32256 On ch=4 n=50 v=0
32256 On ch=4 n=43 v=39
32448 On ch=4 n=43 v=0
32448 On ch=4 n=50 v=39
32640 On ch=4 n=50 v=0
32640 On ch=4 n=52 v=39
32832 On ch=4 n=52 v=0
32832 On ch=4 n=50 v=39
33024 On ch=4 n=50 v=0
33024 On ch=4 n=48 v=39
33216 On ch=4 n=48 v=0
33216 On ch=4 n=55 v=39
33408 On ch=4 n=55 v=0
33408 On ch=4 n=52 v=39
33600 On ch=4 n=52 v=0
33600 On ch=4 n=55 v=39
33792 On ch=4 n=55 v=0
33792 On ch=4 n=45 v=39
33984 On ch=4 n=45 v=0
33984 On ch=4 n=52 v=39
34176 On ch=4 n=52 v=0
34176 On ch=4 n=50 v=39
34368 On ch=4 n=50 v=0
34368 On ch=4 n=48 v=39
34560 On ch=4 n=48 v=0
34560 On ch=4 n=50 v=39
34752 On ch=4 n=50 v=0
34752 On ch=4 n=50 v=39
34944 On ch=4 n=50 v=0
34944 On ch=4 n=50 v=39
35136 On ch=4 n=50 v=0
35136 On ch=4 n=50 v=39
35328 On ch=4 n=50 v=0
35328 On ch=4 n=48 v=39
35520 On ch=4 n=48 v=0
35520 On ch=4 n=50 v=39
35712 On ch=4 n=50 v=0
35712 On ch=4 n=52 v=39
35904 On ch=4 n=52 v=0
35904 On ch=4 n=54 v=39
36096 On ch=4 n=54 v=0
36096 On ch=4 n=55 v=39
36288 On ch=4 n=55 v=0
36288 On ch=4 n=50 v=39
36480 On ch=4 n=50 v=0
36480 On ch=4 n=43 v=39
36672 On ch=4 n=43 v=0
36864 On ch=4 n=55 v=39
37056 On ch=4 n=55 v=0
37248 On ch=4 n=55 v=39
37440 On ch=4 n=55 v=0
37632 On ch=4 n=55 v=39
37824 On ch=4 n=55 v=0
38016 On ch=4 n=55 v=39
38208 On ch=4 n=55 v=0
38400 On ch=4 n=55 v=39
38592 On ch=4 n=55 v=0
38784 On ch=4 n=55 v=39
38976 On ch=4 n=55 v=0
39168 On ch=4 n=55 v=39
39360 On ch=4 n=55 v=0
39552 On ch=4 n=53 v=39
39744 On ch=4 n=53 v=0
39936 On ch=4 n=52 v=39
40128 On ch=4 n=52 v=0
40320 On ch=4 n=52 v=39
40512 On ch=4 n=52 v=0
40704 On ch=4 n=50 v=39
40896 On ch=4 n=50 v=0
41088 On ch=4 n=50 v=39
41280 On ch=4 n=50 v=0
41472 On ch=4 n=49 v=39
42240 On ch=4 n=49 v=0
42240 On ch=4 n=50 v=39
42624 On ch=4 n=50 v=0
42624 On ch=4 n=50 v=39
43008 On ch=4 n=50 v=0
43008 On ch=4 n=55 v=39
43200 On ch=4 n=55 v=0
43392 On ch=4 n=55 v=39
43584 On ch=4 n=55 v=0
43776 On ch=4 n=55 v=39
43968 On ch=4 n=55 v=0
44160 On ch=4 n=55 v=39
44352 On ch=4 n=55 v=0
44544 On ch=4 n=55 v=39
44736 On ch=4 n=55 v=0
44928 On ch=4 n=55 v=39
45120 On ch=4 n=55 v=0
45312 On ch=4 n=55 v=39
45504 On ch=4 n=55 v=0
45696 On ch=4 n=53 v=39
45888 On ch=4 n=53 v=0
46080 On ch=4 n=52 v=39
46272 On ch=4 n=52 v=0
46464 On ch=4 n=52 v=39
46656 On ch=4 n=52 v=0
46848 On ch=4 n=50 v=39
47040 On ch=4 n=50 v=0
47232 On ch=4 n=50 v=39
47424 On ch=4 n=50 v=0
47616 On ch=4 n=50 v=39
48000 On ch=4 n=50 v=0
48000 On ch=4 n=50 v=39
48384 On ch=4 n=50 v=0
48384 On ch=4 n=50 v=39
48576 On ch=4 n=50 v=0
48576 On ch=4 n=50 v=39
48768 On ch=4 n=50 v=0
48768 On ch=4 n=43 v=39
48960 On ch=4 n=43 v=0
48960 Meta TrkEnd
TrkEnd